<?xml version="1.0" standalone="no"?> <!DOCTYPE svg PUBLIC "-//W3C//DTD SVG 1.0//EN" "http://www.w3.org/TR/2001/REC-SVG-20010904/DTD/svg10.dtd" > <svg xmlns="http://www.w3.org/2000/svg" width="100%" height="100%">
<defs >
<font id="HelveticaNeueMedium" horiz-adv-x="463" ><font-face
    font-family="HelveticaNeueMedium"
    units-per-em="1000"
    panose-1="0 0 4 0 0 0 0 0 0 0"
    ascent="952"
    descent="-221"
    alphabetic="0" />
<missing-glyph horiz-adv-x="500" d="M63 0V798H438V0H63ZM125 63H375V736H125V63Z" />
<glyph unicode=" " glyph-name="space" horiz-adv-x="278" />
<glyph unicode="!" glyph-name="exclam" horiz-adv-x="278" d="M77 508V714H202V508L169 199H110L77 508ZM72 0V125H206V0H72Z" />
<glyph unicode="&quot;" glyph-name="quotedbl" horiz-adv-x="444" d="M83 432V714H185V432H83ZM259 432V714H361V432H259Z" />
<glyph unicode="#" glyph-name="numbersign" horiz-adv-x="556" d="M495 285V210H400L370 0H290L319 210H209L179 0H99L128 210H34V285H139L157 415H63V490H167L196 700H277L247 490H358L387 700H468L438 490H524V415H428L410 285H495ZM348 415H237L219 285H330L348 415Z" />
<glyph unicode="$" glyph-name="dollar" horiz-adv-x="556" d="M302 306V73Q425 82 425 192Q425 243 387 271Q360 291 302 306ZM17 217H131Q129 77 259 73V315Q154 344 105 382Q32 437 32 535Q32 626 101 681Q165 731 259 731V809H302V731Q397 731 457 683Q521
631 521 536H407Q402 641 302 641V430Q414 400 466 361Q539 306 539 208Q539 101 470 42Q408 -12 302 -17V-95H259V-17Q148 -15 82 46T17 217ZM259 441V641Q146 641 146 543Q146 469 259 441Z" />
<glyph unicode="%" glyph-name="percent" horiz-adv-x="1000" d="M260 -24L649 724H725L338 -24H260ZM751 -14Q665 -14 622 45Q584 96 584 185Q584 272 624 325Q668 384 751 384Q834 384 878 325Q918 272 918 185Q918 96 880 45Q837 -14 751 -14ZM674 185Q674
51 750 51Q828 51 828 185Q828 319 750 319Q674 319 674 185ZM249 316Q163 316 120 375Q82 426 82 515Q82 602 122 655Q166 714 249 714Q332 714 376 655Q416 602 416 515Q416 426 378 375Q335 316 249 316ZM172 515Q172 381 248 381Q326 381 326 515Q326 649 248
649Q172 649 172 515Z" />
<glyph unicode="&amp;" glyph-name="ampersand" horiz-adv-x="648" d="M302 646Q270 646 248 624T226 567Q226 537 249 503Q270 476 291 448Q332 476 349 496Q375 526 375 564Q375 600 355 623T302 646ZM396 156L256 330Q189 289 185 285Q146 251 146 196Q146
140 178 108T261 76Q315 76 351 105Q367 117 396 156ZM522 0L457 80Q380 -14 257 -14Q157 -14 95 42T32 198Q32 321 196 405Q124 496 124 561Q124 637 174 684T299 731Q373 731 423 688Q477 641 477 560Q477 448 348 379L459 245Q475 290 481 341H581Q569 235 525
166L662 0H522Z" />
<glyph unicode="&apos;" glyph-name="quotesingle" horiz-adv-x="278" d="M88 432V714H190V432H88Z" />
<glyph unicode="(" glyph-name="parenleft" horiz-adv-x="278" d="M286 -191H193Q49 38 49 270Q49 509 193 731H286Q163 511 163 270Q163 17 286 -191Z" />
<glyph unicode=")" glyph-name="parenright" horiz-adv-x="278" d="M-8 731H85Q229 501 229 269Q229 29 85 -191H-8Q115 27 115 269Q115 522 -8 731Z" />
<glyph unicode="*" glyph-name="asterisk" horiz-adv-x="370" d="M130 534L19 572L41 637L151 594V714H219V594L328 637L352 572L238 534L308 440L255 401L184 499L116 401L60 440L130 534Z" />
<glyph unicode="+" glyph-name="plus" horiz-adv-x="600" d="M249 304V506H351V304H552V202H351V0H249V202H48V304H249Z" />
<glyph unicode="," glyph-name="comma" horiz-adv-x="278" d="M69 0V135H208V0Q208 -61 171 -103T73 -158V-97Q105 -89 122 -62T138 0H69Z" />
<glyph unicode="-" glyph-name="hyphen" horiz-adv-x="389" d="M49 218V326H340V218H49Z" />
<glyph unicode="." glyph-name="period" horiz-adv-x="278" d="M69 0V135H208V0H69Z" />
<glyph unicode="/" glyph-name="slash" horiz-adv-x="352" d="M-22 -17L265 731H374L87 -17H-22Z" />
<glyph unicode="0" glyph-name="zero" horiz-adv-x="556" d="M278 81Q406 81 406 350Q406 619 278 619Q150 619 150 350Q150 81 278 81ZM278 714Q414 714 474 592Q520 500 520 350Q520 200 474 108Q414 -14 278 -14Q142 -14 82 108Q36 200 36 350Q36 500 82 592Q142
714 278 714Z" />
<glyph unicode="1" glyph-name="one" horiz-adv-x="556" d="M53 494V584Q131 583 185 610Q245 641 257 700H350V0H225V494H53Z" />
<glyph unicode="2" glyph-name="two" horiz-adv-x="556" d="M517 102V0H39Q40 159 193 265Q241 297 288 329Q342 367 369 401Q403 445 404 495Q405 543 382 576Q352 619 286 619Q171 619 166 444H52Q52 564 114 637Q179 714 293 714Q409 714 470 640Q518 581 518
499Q518 372 362 263Q304 224 246 185Q189 141 176 102H517Z" />
<glyph unicode="3" glyph-name="three" horiz-adv-x="556" d="M228 325V410Q293 407 334 432Q383 460 383 520Q383 564 353 591T274 619Q218 619 187 577T158 476H44Q49 581 109 646Q173 714 276 714Q365 714 427 667Q497 615 497 527Q497 412 398 377V375Q457
363 491 316T525 200Q525 104 451 44Q381 -14 277 -14Q159 -14 94 53Q33 117 31 230H145Q143 164 177 124Q212 81 277 81Q336 81 373 114T411 206Q411 333 228 325Z" />
<glyph unicode="4" glyph-name="four" horiz-adv-x="556" d="M522 256V166H432V0H324V166H24V279L324 700H432V256H522ZM322 564L112 256H324V564H322Z" />
<glyph unicode="5" glyph-name="five" horiz-adv-x="556" d="M48 317L123 700H485V598H208L172 420L174 418Q222 471 303 471Q405 471 465 404Q522 340 522 237Q522 140 466 70Q399 -14 280 -14Q175 -14 109 40Q39 97 35 199H149Q154 143 188 112T278 81Q408 81
408 235Q408 297 376 337Q340 381 275 381Q186 381 162 317H48Z" />
<glyph unicode="6" glyph-name="six" horiz-adv-x="556" d="M285 81Q343 81 377 126Q408 167 408 227Q408 287 376 328T285 370Q225 370 191 327Q159 288 159 227Q159 166 191 126Q226 81 285 81ZM509 523H395Q391 566 364 592T293 619Q212 619 177 534Q156 483
148 379L150 377Q197 460 301 460Q403 460 464 393Q522 328 522 225Q522 122 458 54T289 -14Q146 -14 84 93Q34 180 34 352Q34 498 92 596Q162 714 298 714Q383 714 444 661T509 523Z" />
<glyph unicode="7" glyph-name="seven" horiz-adv-x="556" d="M35 598V700H514V605Q277 337 253 0H128Q139 159 215 321Q285 470 398 598H35Z" />
<glyph unicode="8" glyph-name="eight" horiz-adv-x="556" d="M278 76Q336 76 373 111T411 206Q411 263 374 296T278 329Q220 329 183 296T145 206Q145 146 182 111T278 76ZM278 -14Q169 -14 100 45T31 206Q31 271 65 316T159 377V378Q60 417 60 523Q60 613 117
663T278 714Q382 714 439 664T496 523Q496 417 397 378V377Q456 362 490 317T525 206Q525 105 456 46T278 -14ZM278 624Q230 624 199 596T168 517Q168 469 198 442T278 414Q327 414 357 441T388 517Q388 567 357 595T278 624Z" />
<glyph unicode="9" glyph-name="nine" horiz-adv-x="556" d="M270 619Q211 619 178 576Q148 537 148 476Q148 414 178 374Q211 329 270 329Q331 329 365 374Q397 414 397 476Q397 536 364 577T270 619ZM47 177H161Q165 134 192 108T263 81Q344 81 379 167Q400
217 408 321L406 323Q359 239 255 239Q156 239 95 303T34 475Q34 580 98 647T275 714Q413 714 473 608Q522 520 522 348Q522 202 464 104Q394 -14 258 -14Q173 -14 112 39T47 177Z" />
<glyph unicode=":" glyph-name="colon" horiz-adv-x="278" d="M69 371V506H208V371H69ZM69 0V135H208V0H69Z" />
<glyph unicode=";" glyph-name="semicolon" horiz-adv-x="278" d="M69 0V135H208V0Q208 -61 171 -103T73 -158V-97Q105 -89 122 -62T138 0H69ZM69 371V506H208V371H69Z" />
<glyph unicode="&lt;" glyph-name="less" horiz-adv-x="600" d="M554 94V-8L46 217V289L554 514V412L180 253L554 94Z" />
<glyph unicode="=" glyph-name="equal" horiz-adv-x="600" d="M552 405V303H48V405H552ZM552 203V101H48V203H552Z" />
<glyph unicode="&gt;" glyph-name="greater" horiz-adv-x="600" d="M46 94L420 253L46 412V514L554 289V217L46 -8V94Z" />
<glyph unicode="?" glyph-name="question" horiz-adv-x="556" d="M163 487H49Q48 598 113 664T289 731Q384 731 445 677T507 529Q507 467 479 425Q464 401 419 363Q371 323 356 298Q331 259 331 194H223Q223 277 242 322Q258 360 301 397Q348 438 358 450Q382
481 382 525Q382 580 347 611Q318 636 284 636Q163 636 163 487ZM208 0V125H342V0H208Z" />
<glyph unicode="@" glyph-name="at" horiz-adv-x="800" d="M361 216Q417 216 459 278Q498 334 498 394Q498 429 475 455T419 482Q361 482 319 423Q281 369 281 307Q281 267 303 242T361 216ZM615 542L543 279Q535 248 535 234Q535 210 553 210Q601 210 641 272Q683
338 683 426Q683 535 604 602Q529 666 416 666Q290 666 210 580T129 366Q129 222 214 134Q296 48 425 48Q564 48 650 147H720Q672 70 593 27T421 -17Q264 -17 158 91Q49 201 49 370Q49 520 157 625T416 731Q553 731 650 649Q751 564 751 438Q751 302 663 214Q590
140 515 140Q459 140 456 198H454Q403 141 342 141Q280 141 238 187T196 298Q196 398 256 475Q321 557 415 557Q492 557 527 485L545 542H615Z" />
<glyph unicode="A" glyph-name="A" horiz-adv-x="667" d="M331 591L223 284H441L334 591H331ZM-7 0L267 714H400L675 0H541L474 189H189L122 0H-7Z" />
<glyph unicode="B" glyph-name="B" horiz-adv-x="704" d="M201 325V102H422Q542 102 542 215Q542 325 422 325H201ZM76 0V714H423Q522 714 578 669T635 537Q635 429 533 385V383Q667 354 667 199Q667 110 605 58Q536 0 404 0H76ZM201 612V415H405Q451 415 480
441T510 514Q510 612 405 612H201Z" />
<glyph unicode="C" glyph-name="C" horiz-adv-x="722" d="M683 487H558Q522 629 380 629Q273 629 214 544Q163 470 163 357Q163 244 214 170Q273 85 380 85Q460 85 509 140Q554 190 562 272H684Q676 143 593 63T380 -17Q224 -17 129 94Q38 199 38 357Q38 516 129
621Q224 731 380 731Q503 731 586 667Q672 600 683 487Z" />
<glyph unicode="D" glyph-name="D" horiz-adv-x="722" d="M201 612V102H324Q460 102 517 176Q562 236 562 357Q562 478 517 538Q460 612 324 612H201ZM76 0V714H372Q529 714 612 609Q687 515 687 357Q687 199 612 105Q529 0 372 0H76Z" />
<glyph unicode="E" glyph-name="E" horiz-adv-x="630" d="M76 0V714H590V606H201V419H561V317H201V108H597V0H76Z" />
<glyph unicode="F" glyph-name="F" horiz-adv-x="593" d="M76 0V714H569V606H201V419H524V317H201V0H76Z" />
<glyph unicode="G" glyph-name="G" horiz-adv-x="759" d="M699 376V0H619L600 84Q551 28 502 6T385 -17Q229 -17 134 94Q43 199 43 357Q43 515 134 621Q229 731 385 731Q507 731 589 669Q677 604 691 487H569Q560 555 506 593Q456 629 385 629Q278 629 219 544Q168
470 168 357Q168 244 219 170Q277 86 385 85Q480 84 531 136T585 281H395V376H699Z" />
<glyph unicode="H" glyph-name="H" horiz-adv-x="722" d="M73 0V714H198V430H523V714H648V0H523V322H198V0H73Z" />
<glyph unicode="I" glyph-name="I" horiz-adv-x="278" d="M76 0V714H201V0H76Z" />
<glyph unicode="J" glyph-name="J" horiz-adv-x="537" d="M461 714V230Q461 117 420 60Q365 -17 226 -17Q118 -17 63 49Q13 108 13 212V250H138V213Q138 149 159 119Q182 85 236 85Q294 85 316 121Q336 151 336 223V714H461Z" />
<glyph unicode="K" glyph-name="K" horiz-adv-x="685" d="M76 0V714H201V389L519 714H673L388 429L693 0H537L303 341L201 240V0H76Z" />
<glyph unicode="L" glyph-name="L" horiz-adv-x="574" d="M76 0V714H201V108H564V0H76Z" />
<glyph unicode="M" glyph-name="M" horiz-adv-x="889" d="M74 0V714H250L447 155H449L641 714H815V0H696V551H694L496 0H393L195 551H193V0H74Z" />
<glyph unicode="N" glyph-name="N" horiz-adv-x="722" d="M71 0V714H203L529 188H531V714H650V0H518L193 525H190V0H71Z" />
<glyph unicode="O" glyph-name="O" horiz-adv-x="760" d="M380 731Q536 731 631 621Q722 515 722 357Q722 199 631 94Q536 -17 380 -17Q224 -17 129 94Q38 199 38 357Q38 515 129 621Q224 731 380 731ZM380 629Q273 629 214 544Q163 470 163 357Q163 244 214 170Q273
85 380 85Q487 85 546 170Q597 244 597 357Q597 470 546 544Q487 629 380 629Z" />
<glyph unicode="P" glyph-name="P" horiz-adv-x="667" d="M201 612V376H384Q434 376 468 401Q509 432 509 494Q509 612 386 612H201ZM76 0V714H391Q527 714 589 637Q634 581 634 493Q634 406 589 351Q527 274 391 274H201V0H76Z" />
<glyph unicode="Q" glyph-name="Q" horiz-adv-x="760" d="M460 102L388 165L448 234L535 158Q597 232 597 357Q597 470 546 544Q487 629 380 629Q273 629 214 544Q163 470 163 357Q163 244 214 170Q273 85 380 85Q425 85 460 102ZM621 83L713 3L652 -65L548 26Q472
-17 380 -17Q224 -17 129 94Q38 199 38 357Q38 515 129 621Q224 731 380 731Q536 731 631 621Q722 515 722 357Q722 180 621 83Z" />
<glyph unicode="R" glyph-name="R" horiz-adv-x="704" d="M201 612V389H406Q528 389 528 503Q528 612 404 612H201ZM76 0V714H417Q533 714 593 664T653 521Q653 382 535 341V339Q641 324 641 188Q641 42 680 0H546Q527 31 527 105Q527 208 499 249Q468 294 385
294H201V0H76Z" />
<glyph unicode="S" glyph-name="S" horiz-adv-x="648" d="M33 238H158Q158 160 211 120Q258 85 339 85Q416 85 456 119Q490 148 490 193Q490 259 431 281Q423 284 218 340Q60 383 60 521Q60 622 142 680Q215 731 321 731Q438 731 514 673Q595 610 595 503H470Q462
629 316 629Q264 629 229 610Q185 585 185 536Q185 467 270 445T476 389Q543 369 581 315Q615 266 615 207Q615 95 526 35Q449 -17 331 -17Q201 -17 122 44Q35 111 33 238Z" />
<glyph unicode="T" glyph-name="T" horiz-adv-x="593" d="M8 606V714H586V606H359V0H234V606H8Z" />
<glyph unicode="U" glyph-name="U" horiz-adv-x="722" d="M68 257V714H193V298Q193 201 216 159Q253 91 361 91Q469 91 506 159Q529 201 529 298V714H654V257Q654 123 574 51Q497 -17 361 -17Q225 -17 149 51Q68 123 68 257Z" />
<glyph unicode="V" glyph-name="V" horiz-adv-x="611" d="M233 0L-5 714H125L304 149H306L489 714H616L372 0H233Z" />
<glyph unicode="W" glyph-name="W" horiz-adv-x="944" d="M194 0L6 714H133L262 168H264L408 714H536L676 168H678L811 714H938L741 0H614L471 546H469L323 0H194Z" />
<glyph unicode="X" glyph-name="X" horiz-adv-x="648" d="M250 370L14 714H163L325 462L494 714H634L398 370L651 0H499L321 273L140 0H-3L250 370Z" />
<glyph unicode="Y" glyph-name="Y" horiz-adv-x="648" d="M262 0V280L-6 714H139L328 394L514 714H654L387 280V0H262Z" />
<glyph unicode="Z" glyph-name="Z" horiz-adv-x="630" d="M55 606V714H598V619L182 108H608V0H23V102L439 606H55Z" />
<glyph unicode="[" glyph-name="bracketleft" horiz-adv-x="296" d="M72 -191V731H295V641H180V-101H295V-191H72Z" />
<glyph unicode="\" glyph-name="backslash" horiz-adv-x="352" d="M87 731L374 -17H265L-22 731H87Z" />
<glyph unicode="]" glyph-name="bracketright" horiz-adv-x="296" d="M224 731V-191H1V-101H116V641H1V731H224Z" />
<glyph unicode="^" glyph-name="asciicircum" horiz-adv-x="600" d="M186 335H84L264 700H336L516 335H414L300 582L186 335Z" />
<glyph unicode="_" glyph-name="underscore" horiz-adv-x="500" d="M500 -125H0V-75H500V-125Z" />
<glyph unicode="`" glyph-name="grave" horiz-adv-x="241" d="M-29 731H105L196 588H113L-29 731Z" />
<glyph unicode="a" glyph-name="a" horiz-adv-x="556" d="M379 174V259Q357 245 315 238Q277 233 239 228Q146 212 146 142Q146 108 184 90Q213 76 251 76Q297 76 334 98Q379 125 379 174ZM493 381V115Q493 76 520 76Q536 76 548 78V-1Q511 -14 476 -14Q400 -14
388 49Q324 -14 209 -14Q134 -14 86 24Q32 65 32 137Q32 223 96 261Q135 284 231 298Q339 314 339 314Q386 328 386 371Q386 441 279 441Q172 441 165 359H51Q61 531 286 531Q371 531 427 497Q493 457 493 381Z" />
<glyph unicode="b" glyph-name="b" horiz-adv-x="611" d="M461 258Q461 333 425 385Q385 441 318 441Q248 441 211 392T173 258Q173 178 212 127T318 76Q390 76 429 133Q461 182 461 258ZM63 0V714H177V450H179Q202 487 245 509T333 531Q450 531 515 450Q575 376
575 256Q575 143 521 69Q460 -14 352 -14Q216 -14 173 71H171V0H63Z" />
<glyph unicode="c" glyph-name="c" horiz-adv-x="556" d="M523 344H409Q395 441 291 441Q234 441 198 406Q149 358 149 253Q149 180 180 132Q217 76 286 76Q336 76 368 107T409 194H523Q490 -14 286 -14Q168 -14 100 63Q35 135 35 253Q35 376 99 451Q167 531 290
531Q385 531 447 485Q515 435 523 344Z" />
<glyph unicode="d" glyph-name="d" horiz-adv-x="611" d="M149 253Q149 180 183 131Q222 76 292 76Q363 76 403 134Q437 184 437 259Q437 344 399 392T294 441Q220 441 181 382Q149 332 149 253ZM547 714V0H439V70H437Q394 -14 277 -14Q159 -14 95 66Q35 140 35
262Q35 394 105 467Q166 531 259 531Q381 531 431 450H433V714H547Z" />
<glyph unicode="e" glyph-name="e" horiz-adv-x="556" d="M529 229H149Q149 164 183 122Q220 76 288 76Q384 76 414 162H522Q504 79 440 33T288 -14Q169 -14 102 61T35 258Q35 372 102 450Q173 531 285 531Q394 531 464 451Q531 376 531 267Q531 248 529 229ZM149
304H415Q412 361 377 401T285 441Q227 441 189 402T149 304Z" />
<glyph unicode="f" glyph-name="f" horiz-adv-x="315" d="M9 432V517H94V560Q94 650 138 687Q171 714 237 714Q292 714 317 707V618Q295 624 264 624Q208 624 208 570V517H305V432H208V0H94V432H9Z" />
<glyph unicode="g" glyph-name="g" horiz-adv-x="593" d="M285 90Q355 90 392 147Q424 196 424 270Q424 343 392 389Q355 441 285 441Q215 441 179 383Q149 335 149 261Q149 191 181 144Q218 90 285 90ZM538 517V27Q538 -205 284 -205Q194 -205 133 -170Q60 -128
53 -44H167Q183 -120 291 -120Q424 -120 424 12V91H422Q371 0 267 0Q150 0 90 81Q35 152 35 272Q35 381 97 454Q162 531 269 531Q380 531 422 446H424V517H538Z" />
<glyph unicode="h" glyph-name="h" horiz-adv-x="574" d="M60 0V714H174V449H176Q198 485 239 508T331 531Q417 531 465 486T514 355V0H400V325Q400 441 299 441Q243 441 209 402T174 305V0H60Z" />
<glyph unicode="i" glyph-name="i" horiz-adv-x="241" d="M63 0V517H177V0H63ZM63 606V714H177V606H63Z" />
<glyph unicode="j" glyph-name="j" horiz-adv-x="241" d="M63 -39V517H177V-44Q177 -205 29 -205Q8 -205 -22 -201V-111Q8 -115 17 -115Q46 -115 56 -96Q63 -81 63 -39ZM63 606V714H177V606H63Z" />
<glyph unicode="k" glyph-name="k" horiz-adv-x="537" d="M63 0V714H177V308L383 517H523L325 327L542 0H403L245 251L177 185V0H63Z" />
<glyph unicode="l" glyph-name="l" horiz-adv-x="241" d="M63 0V714H177V0H63Z" />
<glyph unicode="m" glyph-name="m" horiz-adv-x="870" d="M60 0V517H168V445H171Q228 531 330 531Q441 531 475 445Q537 531 637 531Q810 531 810 357V0H696V302Q696 375 682 402Q663 441 602 441Q492 441 492 303V0H378V332Q378 388 358 414T287 441Q240 441
207 405T174 307V0H60Z" />
<glyph unicode="n" glyph-name="n" horiz-adv-x="574" d="M60 0V517H168V441L170 439Q225 531 331 531Q417 531 465 486T514 355V0H400V325Q400 441 299 441Q243 441 209 402T174 305V0H60Z" />
<glyph unicode="o" glyph-name="o" horiz-adv-x="593" d="M297 76Q369 76 409 134Q444 184 444 259Q444 333 409 383Q369 441 297 441Q225 441 185 383Q150 333 150 259Q150 184 185 134Q225 76 297 76ZM297 -14Q175 -14 104 63Q36 137 36 259Q36 380 105 455T297
531Q419 531 490 454Q558 380 558 259Q558 137 490 63Q419 -14 297 -14Z" />
<glyph unicode="p" glyph-name="p" horiz-adv-x="611" d="M461 258Q461 333 425 385Q385 441 318 441Q248 441 211 392T173 258Q173 178 212 127T318 76Q390 76 429 133Q461 182 461 258ZM63 -191V517H171V447H173Q219 531 333 531Q450 531 515 450Q575 376 575
256Q575 143 521 69Q460 -14 352 -14Q230 -14 179 67H177V-191H63Z" />
<glyph unicode="q" glyph-name="q" horiz-adv-x="611" d="M149 258Q149 182 182 133Q220 76 292 76Q364 76 402 127Q437 174 437 258Q437 343 400 392T292 441Q225 441 185 385Q149 333 149 258ZM547 517V-191H433V67H431Q380 -14 258 -14Q150 -14 89 69Q35 143
35 256Q35 376 95 450Q160 531 277 531Q391 531 437 447H439V517H547Z" />
<glyph unicode="r" glyph-name="r" horiz-adv-x="352" d="M60 0V517H167V417H169Q179 460 224 495T320 531Q333 531 363 528V418Q323 423 314 423Q253 423 215 377Q174 329 174 246V0H60Z" />
<glyph unicode="s" glyph-name="s" horiz-adv-x="519" d="M32 166H146Q154 76 263 76Q381 76 378 144Q376 192 288 213Q141 249 129 255Q43 293 43 383Q43 460 116 499Q174 531 259 531Q346 531 402 495Q465 453 475 372H356Q343 441 251 441Q157 441 157 388Q157
352 210 333Q220 329 325 305Q403 287 440 261Q492 223 492 154Q492 69 417 24Q354 -14 261 -14Q159 -14 99 30Q33 78 32 166Z" />
<glyph unicode="t" glyph-name="t" horiz-adv-x="333" d="M8 432V517H94V672H208V517H311V432H208V156Q208 116 216 103Q227 85 263 85Q295 85 311 89V1Q236 -5 237 -5Q153 -5 121 29Q94 57 94 127V432H8Z" />
<glyph unicode="u" glyph-name="u" horiz-adv-x="574" d="M514 517V0H402V72H400Q379 34 338 10T253 -14Q60 -14 60 189V517H174V200Q174 76 273 76Q400 76 400 217V517H514Z" />
<glyph unicode="v" glyph-name="v" horiz-adv-x="519" d="M197 0L9 517H133L264 120H266L392 517H510L325 0H197Z" />
<glyph unicode="w" glyph-name="w" horiz-adv-x="778" d="M173 0L13 517H134L235 131H237L334 517H449L542 131H544L649 517H765L603 0H486L390 384H388L293 0H173Z" />
<glyph unicode="x" glyph-name="x" horiz-adv-x="537" d="M4 0L199 272L20 517H158L266 358L379 517H511L335 278L533 0H396L265 191L138 0H4Z" />
<glyph unicode="y" glyph-name="y" horiz-adv-x="519" d="M199 2L3 517H128L263 131H265L396 517H515L314 -28Q280 -120 254 -152Q211 -205 131 -205Q91 -205 52 -199V-103Q94 -110 106 -110Q142 -110 161 -90Q174 -76 186 -38L199 2Z" />
<glyph unicode="z" glyph-name="z" horiz-adv-x="500" d="M42 427V517H462V437L166 90H477V0H22V80L308 427H42Z" />
<glyph unicode="{" glyph-name="braceleft" horiz-adv-x="296" d="M-4 225V315Q27 315 54 330Q90 350 90 388V594Q90 657 138 698Q177 731 218 731H309V641H254Q198 641 198 571V376Q198 323 158 295Q131 276 94 271V269Q198 259 198 158V-31Q198 -101 254 -101H309V-191H218Q177
-191 138 -158Q90 -117 90 -54V144Q90 187 54 209Q27 225 -4 225Z" />
<glyph unicode="|" glyph-name="bar" horiz-adv-x="222" d="M60 -17V731H162V-17H60Z" />
<glyph unicode="}" glyph-name="braceright" horiz-adv-x="296" d="M300 315V225Q269 225 243 210Q206 190 206 152V-54Q206 -117 158 -158Q119 -191 78 -191H-13V-101H42Q98 -101 98 -31V164Q98 217 138 245Q165 264 202 269V271Q98 281 98 382V571Q98 641 42
641H-13V731H78Q119 731 158 698Q206 657 206 594V396Q206 353 243 331Q269 315 300 315Z" />
<glyph unicode="~" glyph-name="asciitilde" horiz-adv-x="600" d="M495 338V338L531 254Q501 212 481 195Q447 168 406 168Q364 168 304 201Q241 236 189 236Q140 236 105 168L69 252Q114 338 194 338Q232 338 305 306Q387 270 407 270Q433 270 457 292Q470 304
495 338Z" />
</font>
</defs>
</svg>
