<?xml version="1.0" encoding="utf-8"?>
<!-- Generator: Adobe Illustrator 16.0.0, SVG Export Plug-In . SVG Version: 6.00 Build 0)  -->
<!DOCTYPE svg PUBLIC "-//W3C//DTD SVG 1.1//EN" "http://www.w3.org/Graphics/SVG/1.1/DTD/svg11.dtd">
<svg version="1.1" id="Layer_1" xmlns="http://www.w3.org/2000/svg" xmlns:xlink="http://www.w3.org/1999/xlink" x="0px" y="0px"
	 width="114.639px" height="22.237px" viewBox="-28.142 -5.168 114.639 22.237"
	 enable-background="new -28.142 -5.168 114.639 22.237" xml:space="preserve">
<g>
	<path fill="none" stroke="#ED1C24" stroke-width="0.2977" stroke-miterlimit="10" d="M7.007,10.477"/>
	<g>
		<path fill="#EBEBEC" stroke="#B5885D" stroke-width="0.2233" stroke-miterlimit="10" d="M-2.089,2.582l-25.53,11.443h24.508
			c0,0,1.579,2.041,3.249,0.089H23.81L42.932,2.58H18.147c0,0-1.672,1.507-2.785,0H-2.089V2.582z"/>
		
			<line fill="none" stroke="#ED1C24" stroke-width="0.4465" stroke-miterlimit="10" stroke-dasharray="0.5954" x1="18.24" y1="2.668" x2="0.416" y2="14.024"/>
		
			<line fill="none" stroke="#ED1C24" stroke-width="0.4465" stroke-miterlimit="10" stroke-dasharray="0.5954" x1="15.362" y1="2.582" x2="-3.205" y2="14.113"/>
		<path fill="none" stroke="#ED1C24" stroke-width="0.2977" stroke-miterlimit="10" d="M18.24,2.668"/>
	</g>
	<g>
		<rect x="49.34" y="0.983" fill="#939598" width="1.766" height="7.544"/>
		<rect x="46.463" y="3.822" fill="#939598" width="7.704" height="1.687"/>
	</g>
	<g>
		<polyline fill="#EBEBEC" stroke="#B5885D" stroke-width="0.235" stroke-miterlimit="10" points="71.992,-0.968 86.38,-0.968 
			86.38,16.952 72.177,16.952 71.805,16.51 		"/>
		<path fill="#CBCCCD" stroke="#B5885D" stroke-width="0.235" stroke-miterlimit="10" d="M71.992-1.058
			c0,0-3.065-3.814-12.625-3.991v1.418v16.771c9.562,0.177,12.532,3.548,12.532,3.548L71.992-1.058z"/>
	</g>
</g>
</svg>
