<?xml version="1.0" encoding="utf-8"?>
<!-- Generator: Adobe Illustrator 16.0.0, SVG Export Plug-In . SVG Version: 6.00 Build 0)  -->
<!DOCTYPE svg PUBLIC "-//W3C//DTD SVG 1.1//EN" "http://www.w3.org/Graphics/SVG/1.1/DTD/svg11.dtd">
<svg version="1.1" id="Layer_1" xmlns="http://www.w3.org/2000/svg" xmlns:xlink="http://www.w3.org/1999/xlink" x="0px" y="0px"
	 width="116.67px" height="24.33px" viewBox="-31.075 -5.803 116.67 24.33" enable-background="new -31.075 -5.803 116.67 24.33"
	 xml:space="preserve">
<g>
	<rect x="54.531" y="2.624" fill="#939598" width="1.923" height="7.758"/>
	<rect x="51.292" y="5.544" fill="#939598" width="8.396" height="1.732"/>
</g>
<g>
	<path fill="#EBEBEC" stroke="#B5885D" stroke-width="0.2233" stroke-miterlimit="10" d="M-2.409,3.354l-28.114,11.868h18.606
		c0,0,1.416,2.003,3.641,0H7.298c0,0,1.518,2.003,3.236,0h15.171L46.538,3.354H29.852c0,0-1.619,1.733-2.734,0h-7.583h-8.699
		c0,0-1.516,1.733-2.732,0H-2.409z"/>
	
		<line fill="none" stroke="#ED1C24" stroke-width="0.4465" stroke-miterlimit="10" stroke-dasharray="0.5954" x1="30.055" y1="3.354" x2="10.738" y2="15.222"/>
	
		<line fill="none" stroke="#ED1C24" stroke-width="0.4465" stroke-miterlimit="10" stroke-dasharray="0.5954" x1="27.323" y1="3.354" x2="7.401" y2="15.222"/>
	
		<line fill="none" stroke="#ED1C24" stroke-width="0.4465" stroke-miterlimit="10" stroke-dasharray="0.5954" x1="11.346" y1="3.354" x2="-8.175" y2="15.313"/>
	
		<line fill="none" stroke="#ED1C24" stroke-width="0.4465" stroke-miterlimit="10" stroke-dasharray="0.5954" x1="8.109" y1="3.444" x2="-11.814" y2="15.313"/>
</g>
<g>
	<polygon fill="#CBCCCD" stroke="#B5885D" stroke-width="0.235" stroke-miterlimit="10" points="76.072,-0.205 85.477,-2.579 
		85.374,16.129 76.374,18.41 76.173,18.41 	"/>
	
		<rect x="65.451" y="-0.205" fill="#B4B5B8" stroke="#B5885D" stroke-width="0.235" stroke-miterlimit="10" width="10.722" height="18.615"/>
	<polygon fill="#EBEBEC" stroke="#B5885D" stroke-width="0.235" stroke-miterlimit="10" points="65.451,-0.296 65.451,18.14 
		73.846,13.029 73.846,-5.59 	"/>
</g>
</svg>
