<?xml version="1.0" encoding="utf-8"?>
<!-- Generator: Adobe Illustrator 16.0.0, SVG Export Plug-In . SVG Version: 6.00 Build 0)  -->
<!DOCTYPE svg PUBLIC "-//W3C//DTD SVG 1.1//EN" "http://www.w3.org/Graphics/SVG/1.1/DTD/svg11.dtd">
<svg version="1.1" id="Layer_1" xmlns="http://www.w3.org/2000/svg" xmlns:xlink="http://www.w3.org/1999/xlink" x="0px" y="0px"
	 width="114.63px" height="16.112px" viewBox="-28.333 -3.974 114.63 16.112" enable-background="new -28.333 -3.974 114.63 16.112"
	 xml:space="preserve">
<g>
	<rect x="49.601" y="-3.974" fill="#939598" width="1.78" height="7.944"/>
	<rect x="46.703" y="-0.89" fill="#939598" width="7.763" height="1.777"/>
</g>
<path fill="#EBEBEC" stroke="#B5885D" stroke-width="0.2233" stroke-miterlimit="10" d="M-1.833-1.077L-27.83,11.071h17.206
	c0,0,1.402,1.964,3.46,0H6.959c0,0,1.402,2.15,3.273,0h13.84l19.45-12.147H28.186c0,0-1.403-1.401-2.899,0.093H10.51
	c0,0-1.402,1.496-2.525,0L-1.833-1.077z"/>
<line fill="none" stroke="#ED1C24" stroke-width="0.4465" stroke-miterlimit="10" stroke-dasharray="0.5954" x1="28.001" y1="-1.077" x2="10.139" y2="10.978"/>
<line fill="none" stroke="#ED1C24" stroke-width="0.4465" stroke-miterlimit="10" stroke-dasharray="0.5954" x1="25.383" y1="-1.077" x2="6.959" y2="10.978"/>
<line fill="none" stroke="#ED1C24" stroke-width="0.4465" stroke-miterlimit="10" stroke-dasharray="0.5954" x1="10.888" y1="-1.077" x2="-7.071" y2="11.071"/>
<line fill="none" stroke="#ED1C24" stroke-width="0.4465" stroke-miterlimit="10" stroke-dasharray="0.5954" x1="-10.53" y1="10.978" x2="7.894" y2="-0.983"/>
<g>
	<polyline fill="#B4B5B8" stroke="#B5885D" stroke-width="0.235" stroke-miterlimit="10" points="63.444,-2.384 63.538,-3.691 
		86.17,-3.691 85.141,10.046 	"/>
	<polygon fill="#CBCCCD" stroke="#B5885D" stroke-width="0.235" stroke-miterlimit="10" points="82.71,-2.291 85.141,10.046 
		60.357,10.046 62.695,-2.197 	"/>
	<polygon fill="#EBEBEC" stroke="#B5885D" stroke-width="0.235" stroke-miterlimit="10" points="81.96,11.915 59.607,11.915 
		61.014,-2.291 82.71,-2.291 	"/>
</g>
</svg>
