<?xml version="1.0" encoding="utf-8"?>
<!-- Generator: Adobe Illustrator 16.0.0, SVG Export Plug-In . SVG Version: 6.00 Build 0)  -->
<!DOCTYPE svg PUBLIC "-//W3C//DTD SVG 1.1//EN" "http://www.w3.org/Graphics/SVG/1.1/DTD/svg11.dtd">
<svg version="1.1" id="Layer_1" xmlns="http://www.w3.org/2000/svg" xmlns:xlink="http://www.w3.org/1999/xlink" x="0px" y="0px"
	 width="32.186px" height="22.154px" viewBox="-7.672 -5.497 32.186 22.154" enable-background="new -7.672 -5.497 32.186 22.154"
	 xml:space="preserve">
<g>
	
		<linearGradient id="SVGID_1_" gradientUnits="userSpaceOnUse" x1="166.585" y1="-184.0254" x2="206.4553" y2="-156.1076" gradientTransform="matrix(0.4351 0 0 -0.4351 -80.9766 -65.0829)">
		<stop  offset="0" style="stop-color:#CA6341"/>
		<stop  offset="0" style="stop-color:#FEDC77"/>
		<stop  offset="0.0056" style="stop-color:#FBC926"/>
		<stop  offset="0.2528" style="stop-color:#FCCAB5"/>
		<stop  offset="0.2986" style="stop-color:#F3C0A5"/>
		<stop  offset="0.3896" style="stop-color:#E2A981"/>
		<stop  offset="0.5159" style="stop-color:#CD8A4D"/>
		<stop  offset="0.5955" style="stop-color:#C0782D"/>
		<stop  offset="0.8144" style="stop-color:#DEA66C"/>
		<stop  offset="0.8446" style="stop-color:#E3AE75"/>
		<stop  offset="1" style="stop-color:#E6BF7C"/>
		<stop  offset="1" style="stop-color:#E59673"/>
		<stop  offset="1" style="stop-color:#FFFBCC"/>
	</linearGradient>
	<path fill="url(#SVGID_1_)" stroke="#231916" stroke-width="0.1547" stroke-miterlimit="10" d="M0.03-5.42h3.073l7.413,21.531H7.53
		L5.451,9.717h-8.042l-2.169,6.395h-2.802L0.03-5.42z M4.55,7.272L1.387-2.221l-3.253,9.494H4.55z"/>
	
		<linearGradient id="SVGID_2_" gradientUnits="userSpaceOnUse" x1="203.9336" y1="-174.9683" x2="236.756" y2="-151.9856" gradientTransform="matrix(0.4351 0 0 -0.4351 -80.9766 -65.0829)">
		<stop  offset="0" style="stop-color:#CA6341"/>
		<stop  offset="0" style="stop-color:#FEDC77"/>
		<stop  offset="0.0056" style="stop-color:#FBC926"/>
		<stop  offset="0.2528" style="stop-color:#FCCAB5"/>
		<stop  offset="0.2986" style="stop-color:#F3C0A5"/>
		<stop  offset="0.3896" style="stop-color:#E2A981"/>
		<stop  offset="0.5159" style="stop-color:#CD8A4D"/>
		<stop  offset="0.5955" style="stop-color:#C0782D"/>
		<stop  offset="0.8144" style="stop-color:#DEA66C"/>
		<stop  offset="0.8446" style="stop-color:#E3AE75"/>
		<stop  offset="1" style="stop-color:#E6BF7C"/>
		<stop  offset="1" style="stop-color:#E59673"/>
		<stop  offset="1" style="stop-color:#FFFBCC"/>
	</linearGradient>
	<path fill="url(#SVGID_2_)" stroke="#231916" stroke-width="0.1547" stroke-miterlimit="10" d="M11.326-5.42h2.443v7.803
		c0.543-0.751,1.175-1.315,1.897-1.787c0.723-0.471,1.627-0.563,2.531-0.563c1.806,0,3.343,0.657,4.52,1.973
		c1.175,1.317,1.719,3.29,1.719,5.925c0,2.445-0.544,4.511-1.719,6.205c-1.175,1.69-2.802,2.444-4.791,2.444
		c-1.173,0-2.079-0.281-2.802-0.848c-0.543-0.374-0.905-0.843-1.537-1.69v1.976h-2.352V-5.42H11.326z M20.816,12.539
		c0.633-1.126,0.997-2.633,0.997-4.419c0-1.694-0.362-3.007-0.997-4.043c-0.632-1.036-1.717-1.694-2.981-1.694
		c-1.175,0-2.17,0.47-2.984,1.316c-0.814,0.847-1.265,2.35-1.265,4.327c0,1.503,0.182,2.725,0.54,3.572
		c0.635,1.784,1.899,2.631,3.709,2.631C19.191,14.325,20.185,13.668,20.816,12.539z"/>
</g>
</svg>
