<?xml version="1.0" encoding="utf-8"?>
<!-- Generator: Adobe Illustrator 16.0.0, SVG Export Plug-In . SVG Version: 6.00 Build 0)  -->
<!DOCTYPE svg PUBLIC "-//W3C//DTD SVG 1.1//EN" "http://www.w3.org/Graphics/SVG/1.1/DTD/svg11.dtd">
<svg version="1.1" id="Layer_1" xmlns="http://www.w3.org/2000/svg" xmlns:xlink="http://www.w3.org/1999/xlink" x="0px" y="0px"
	 width="32.325px" height="34.248px" viewBox="-7.51 -8.436 32.325 34.248" enable-background="new -7.51 -8.436 32.325 34.248"
	 xml:space="preserve">
<g>
	<g>
		<polygon fill="#EBEBEC" stroke="#B5885D" stroke-width="0.2481" stroke-miterlimit="10" points="22.132,-5.219 19.207,-8.312 
			-7.386,-8.312 -7.386,25.688 24.614,25.688 24.614,-2.412 		"/>
		<polygon fill="#EBEBEC" stroke="#B5885D" stroke-width="0.2481" stroke-miterlimit="10" points="24.527,-2.597 19.296,-2.597 
			19.296,-8.029 22.043,-5.219 		"/>
	</g>
	<g>
		<path d="M-1.357,14.074c-0.71,0-1.419-0.471-1.774-1.311c-0.44-0.844-0.618-1.966-0.618-3.466c0-1.499,0.267-2.623,0.618-3.465
			c0.443-0.844,1.064-1.311,1.774-1.311c0.708,0,1.417,0.467,1.772,1.311c0.442,0.842,0.618,1.966,0.618,3.465
			c0,1.498-0.265,2.622-0.618,3.466C0.06,13.604-0.56,14.074-1.357,14.074z M-1.357,5.549c-0.532,0-0.798,0.375-1.063,0.939
			c-0.267,0.56-0.442,1.592-0.442,2.81c0,1.218,0.177,2.062,0.442,2.809c0.267,0.563,0.62,0.939,1.063,0.939
			c0.532,0,0.797-0.376,1.064-0.939c0.265-0.651,0.44-1.591,0.44-2.809c0-1.217-0.177-2.061-0.44-2.81
			C-0.472,5.927-0.825,5.549-1.357,5.549z"/>
		<path d="M3.783,6.206C3.695,6.206,3.695,6.206,3.783,6.206H3.606c-0.178,0-0.267,0-0.353-0.095C3.165,6.02,3.165,5.927,3.165,5.74
			c0-0.093,0-0.19,0.088-0.284S3.43,5.269,3.606,5.269l1.772-0.562c0.088,0,0.088,0,0.177,0c0.09,0,0.09,0,0.178,0
			c0.088,0,0.179,0,0.179,0.093c0.088,0.095,0.088,0.188,0.088,0.377v7.679h0.976c0.355,0,0.532,0,0.62,0.096
			c0.088,0.094,0.178,0.187,0.178,0.373s0,0.282-0.09,0.378c-0.088,0.093-0.177,0.093-0.354,0.093H3.695
			c-0.176,0-0.265,0-0.353-0.093c-0.088-0.1-0.088-0.193-0.088-0.378s0.088-0.373,0.178-0.373c0.088,0,0.355-0.096,0.621-0.096
			h0.973v-6.93L3.783,6.206z"/>
		<path d="M9.634,13.794c-0.265,0-0.443-0.093-0.532-0.192c-0.088-0.094-0.177-0.28-0.177-0.465c0-0.375,0.442-0.844,1.152-1.779
			l0.177-0.19c0.089-0.185,0.355-0.369,0.534-0.559c1.419-1.592,2.127-2.716,2.127-3.372c0-0.562-0.177-0.938-0.443-1.217
			c-0.265-0.374-0.532-0.469-0.976-0.469c-0.267,0-0.531,0.097-0.708,0.19C10.52,5.833,10.343,6.02,10.254,6.3
			c0,0-0.088,0.096-0.088,0.189c-0.175,0.373-0.355,0.56-0.532,0.56S9.369,6.955,9.278,6.862C9.19,6.768,9.19,6.489,9.19,6.3
			c0-0.188,0-0.282,0.088-0.373c0-0.093,0.091-0.187,0.181-0.282c0.263-0.28,0.532-0.56,0.972-0.655
			c0.443-0.188,0.71-0.282,1.154-0.282c0.62,0,1.24,0.282,1.684,0.749c0.445,0.469,0.62,1.124,0.62,1.873
			c0,0.938-0.62,2.154-2.039,3.745c-0.354,0.378-0.62,0.657-0.797,0.845l-0.71,0.844h2.747c0-0.187,0.09-0.376,0.179-0.469
			c0.088-0.094,0.179-0.188,0.355-0.188c0.178,0,0.267,0.095,0.353,0.188c0.087,0.093,0.089,0.284,0.089,0.469c0,0,0,0,0,0.093
			v0.096l-0.089,0.56c0,0.193-0.088,0.286-0.088,0.378c-0.088,0.093-0.177,0.093-0.267,0.093H9.634V13.794L9.634,13.794z"/>
		<path d="M19.207,8.83c0.532,0.187,0.797,0.468,1.063,0.844c0.267,0.467,0.441,0.842,0.441,1.495c0,0.844-0.265,1.501-0.709,2.062
			c-0.531,0.563-1.151,0.75-1.948,0.75c-0.622,0-1.152-0.187-1.687-0.471c-0.531-0.279-0.708-0.558-0.708-0.933
			c0-0.191,0.088-0.284,0.177-0.376c0.09-0.095,0.179-0.188,0.354-0.188c0.09,0,0.354,0.094,0.708,0.375
			c0.443,0.284,0.801,0.376,1.242,0.376c0.532,0,0.888-0.187,1.152-0.563c0.354-0.375,0.532-0.746,0.532-1.217
			c0-0.467-0.089-0.747-0.355-1.033c-0.265-0.277-0.532-0.56-0.797-0.56c-0.089,0-0.267,0-0.443-0.094
			c-0.354,0-0.53-0.188-0.53-0.562c0-0.282,0.177-0.469,0.53-0.562c0.179,0,0.267,0,0.354-0.094
			c0.354-0.093,0.532-0.187,0.709-0.468c0.177-0.28,0.354-0.56,0.354-0.842c0-0.469-0.089-0.75-0.354-1.122
			c-0.262-0.284-0.528-0.471-0.882-0.471c-0.354,0-0.62,0.094-1.063,0.374c-0.354,0.282-0.532,0.375-0.62,0.375
			c-0.089,0-0.265,0-0.265-0.093c-0.091-0.094-0.091-0.187-0.091-0.375c0-0.28,0.267-0.56,0.622-0.842
			c0.53-0.282,0.974-0.466,1.506-0.466c0.622,0,1.151,0.282,1.596,0.653c0.443,0.469,0.62,1.033,0.62,1.688
			c0,0.562-0.089,0.937-0.354,1.215C20.004,8.452,19.65,8.737,19.207,8.83z"/>
	</g>
</g>
</svg>
