<?xml version="1.0" encoding="utf-8"?>
<!-- Generator: Adobe Illustrator 16.0.0, SVG Export Plug-In . SVG Version: 6.00 Build 0)  -->
<!DOCTYPE svg PUBLIC "-//W3C//DTD SVG 1.1//EN" "http://www.w3.org/Graphics/SVG/1.1/DTD/svg11.dtd">
<svg version="1.1" id="Layer_1" xmlns="http://www.w3.org/2000/svg" xmlns:xlink="http://www.w3.org/1999/xlink" x="0px" y="0px"
	 width="32.188px" height="20.153px" viewBox="-7.723 -4.545 32.188 20.153" enable-background="new -7.723 -4.545 32.188 20.153"
	 xml:space="preserve">
<g>
	
		<linearGradient id="SVGID_1_" gradientUnits="userSpaceOnUse" x1="168.5444" y1="-183.5925" x2="206.2206" y2="-157.2114" gradientTransform="matrix(0.4351 0 0 -0.4351 -81.3388 -65.1956)">
		<stop  offset="0" style="stop-color:#A7A9AC"/>
		<stop  offset="0" style="stop-color:#D1D3D4"/>
		<stop  offset="0.1236" style="stop-color:#A7A9AC"/>
		<stop  offset="0.2516" style="stop-color:#C7C8CA"/>
		<stop  offset="0.3999" style="stop-color:#E7E8E8"/>
		<stop  offset="0.4775" style="stop-color:#F3F4F4"/>
		<stop  offset="0.736" style="stop-color:#A7A9AC"/>
		<stop  offset="0.8033" style="stop-color:#B7B7B8"/>
		<stop  offset="0.9324" style="stop-color:#D3D0CE"/>
		<stop  offset="1" style="stop-color:#DED9D6"/>
		<stop  offset="1" style="stop-color:#E5E2DF"/>
	</linearGradient>
	<path fill="url(#SVGID_1_)" stroke="#231916" stroke-width="0.1532" stroke-miterlimit="10" d="M0.025-4.382h3.092l7.363,19.569
		H7.479l-2.091-5.86h-8.001l-2.18,5.86h-2.818L0.025-4.382z M4.572,7.081L1.48-1.539l-3.271,8.621H4.572z"/>
	
		<linearGradient id="SVGID_2_" gradientUnits="userSpaceOnUse" x1="205.7183" y1="-174.5637" x2="237.1079" y2="-152.5843" gradientTransform="matrix(0.4351 0 0 -0.4351 -81.3388 -65.1956)">
		<stop  offset="0" style="stop-color:#A7A9AC"/>
		<stop  offset="0" style="stop-color:#D1D3D4"/>
		<stop  offset="0.1236" style="stop-color:#A7A9AC"/>
		<stop  offset="0.2516" style="stop-color:#C7C8CA"/>
		<stop  offset="0.3999" style="stop-color:#E7E8E8"/>
		<stop  offset="0.4775" style="stop-color:#F3F4F4"/>
		<stop  offset="0.736" style="stop-color:#A7A9AC"/>
		<stop  offset="0.8033" style="stop-color:#B7B7B8"/>
		<stop  offset="0.9324" style="stop-color:#D3D0CE"/>
		<stop  offset="1" style="stop-color:#DED9D6"/>
		<stop  offset="1" style="stop-color:#E5E2DF"/>
	</linearGradient>
	<path fill="url(#SVGID_2_)" stroke="#231916" stroke-width="0.1532" stroke-miterlimit="10" d="M11.297-4.468h2.455v7.067
		c0.544-0.689,1.18-1.207,1.908-1.638c0.727-0.346,1.637-0.518,2.455-0.518c1.815,0,3.363,0.604,4.545,1.81s1.729,3.016,1.729,5.431
		c0,2.241-0.546,4.139-1.729,5.603c-1.182,1.554-2.728,2.245-4.726,2.245c-1.089,0-2.092-0.262-2.816-0.777
		c-0.454-0.346-0.911-0.777-1.547-1.554v1.812h-2.184L11.297-4.468L11.297-4.468z M20.75,11.91c0.638-1.034,1.002-2.413,1.002-4.053
		c0-1.55-0.364-2.672-1.002-3.707c-0.634-0.949-1.727-1.466-2.908-1.466c-1.184,0-2.089,0.432-3.001,1.207
		c-0.816,0.777-1.271,2.157-1.271,3.966c0,1.383,0.183,2.417,0.545,3.276c0.637,1.64,1.815,2.329,3.728,2.329
		C19.115,13.464,20.117,12.948,20.75,11.91z"/>
</g>
</svg>
