<?xml version="1.0" encoding="utf-8"?>
<!-- Generator: Adobe Illustrator 16.0.0, SVG Export Plug-In . SVG Version: 6.00 Build 0)  -->
<!DOCTYPE svg PUBLIC "-//W3C//DTD SVG 1.1//EN" "http://www.w3.org/Graphics/SVG/1.1/DTD/svg11.dtd">
<svg version="1.1" id="Layer_1" xmlns="http://www.w3.org/2000/svg" xmlns:xlink="http://www.w3.org/1999/xlink" x="0px" y="0px"
	 width="5.21px" height="5.21px" viewBox="586.947 315.475 5.21 5.21" enable-background="new 586.947 315.475 5.21 5.21"
	 xml:space="preserve">
<g>
	<g>
		<circle fill="#597CBE" cx="589.552" cy="318.08" r="2.605"/>
	</g>
	<g>
		<path fill="#FFFFFF" d="M588.875,316.725c0.156-0.104,0.364-0.156,0.573-0.156c0.313,0,0.572,0.053,0.781,0.209
			c0.208,0.156,0.313,0.364,0.313,0.625c0,0.156-0.052,0.313-0.156,0.469c-0.052,0.052-0.156,0.156-0.313,0.261l-0.156,0.104
			c-0.104,0.052-0.156,0.156-0.156,0.208s0,0.156-0.053,0.261h-0.572c0-0.209,0.052-0.365,0.052-0.469
			c0.052-0.104,0.104-0.209,0.261-0.313l0.156-0.104c0.052-0.053,0.104-0.053,0.104-0.104c0.053-0.052,0.104-0.156,0.104-0.261
			c0-0.104-0.052-0.208-0.104-0.26c-0.052-0.104-0.156-0.104-0.313-0.104s-0.26,0.052-0.313,0.156
			c-0.052,0.104-0.104,0.208-0.104,0.313h-0.573C588.51,317.195,588.614,316.882,588.875,316.725z M589.239,319.018h0.625v0.572
			h-0.625V319.018z"/>
	</g>
</g>
</svg>
