<?xml version="1.0" encoding="utf-8"?>
<!-- Generator: Adobe Illustrator 17.0.0, SVG Export Plug-In . SVG Version: 6.00 Build 0)  -->
<!DOCTYPE svg PUBLIC "-//W3C//DTD SVG 1.1//EN" "http://www.w3.org/Graphics/SVG/1.1/DTD/svg11.dtd">
<svg version="1.1" id="Layer_1" xmlns="http://www.w3.org/2000/svg" xmlns:xlink="http://www.w3.org/1999/xlink" x="0px" y="0px"
	 width="23.334px" height="21.719px" viewBox="12.609 12.359 23.334 21.719" enable-background="new 12.609 12.359 23.334 21.719"
	 xml:space="preserve">
<path fill="#96999B" d="M12.612,13.659c-0.047-0.646,0.503-1.28,1.159-1.286c0.977-0.026,1.955-0.008,2.934-0.008
	c0.891-0.008,1.807,0.311,2.416,0.98c0.587,0.6,0.837,1.431,0.946,2.242c4.948,0.002,9.897,0.003,14.845,0
	c0.3,0.013,0.675-0.013,0.874,0.263c0.268,0.293,0.119,0.708,0.089,1.054c-0.453,2.951-0.848,5.912-1.302,8.864
	c-0.016,0.397-0.388,0.714-0.783,0.674c-3.928,0.01-7.858-0.008-11.788,0.008c0.097,0.438,0.081,0.975,0.474,1.273
	c0.219,0.218,0.538,0.234,0.83,0.229c3.275-0.01,6.552,0.008,9.828,0.003c0.616-0.048,1.214,0.414,1.31,1.025
	c0.16,0.756-0.538,1.541-1.307,1.465c-3.009-0.002-6.019-0.002-9.028,0c-0.703-0.002-1.43,0.053-2.103-0.19
	c-1.144-0.377-2.071-1.391-2.299-2.581c-0.708-4.038-1.446-8.069-2.171-12.104c-0.032-0.364-0.297-0.745-0.698-0.721
	c-1.014-0.035-2.031,0.016-3.045-0.013C13.169,14.839,12.62,14.273,12.612,13.659z"/>
<path fill="#96999B" d="M22.705,30.907c0.831-0.355,1.886,0.12,2.161,0.983c0.336,0.862-0.236,1.922-1.138,2.118
	c-0.841,0.265-1.802-0.314-2.001-1.165C21.508,32.07,21.955,31.19,22.705,30.907z"/>
<path fill="#96999B" d="M30.958,30.928c0.989-0.484,2.323,0.294,2.323,1.413c0.104,1.003-0.898,1.896-1.88,1.713
	c-0.855-0.113-1.52-0.981-1.382-1.836C30.087,31.663,30.463,31.176,30.958,30.928z"/>
</svg>
