<?xml version="1.0" encoding="utf-8"?>
<!-- Generator: Adobe Illustrator 17.0.0, SVG Export Plug-In . SVG Version: 6.00 Build 0)  -->
<!DOCTYPE svg PUBLIC "-//W3C//DTD SVG 1.1//EN" "http://www.w3.org/Graphics/SVG/1.1/DTD/svg11.dtd">
<svg version="1.1" id="Layer_1" xmlns="http://www.w3.org/2000/svg" xmlns:xlink="http://www.w3.org/1999/xlink" x="0px" y="0px"
	 width="21.785px" height="21.741px" viewBox="286.357 410.202 21.785 21.741"
	 enable-background="new 286.357 410.202 21.785 21.741" xml:space="preserve">
<g>
	<path fill="#96999B" d="M291.702,411.831c2.275-1.368,5.065-1.839,7.667-1.325c2.745,0.535,5.25,2.191,6.821,4.504
		c2.495,3.573,2.492,8.699-0.096,12.221c-0.63,0.689-1.869-0.191-1.378-1.009c0.852-1.321,1.459-2.818,1.571-4.398
		c0.221-2.611-0.756-5.307-2.634-7.141c-1.652-1.655-3.964-2.634-6.304-2.646c-2.357-0.023-4.718,0.9-6.4,2.559
		c-1.717,1.652-2.75,4.004-2.751,6.392c-0.027,2.403,0.946,4.809,2.674,6.485c1.933,1.938,4.779,2.931,7.496,2.564
		c0.942-0.158,1.927-0.542,2.485-1.36c0.374-0.429,0.201-1.029,0.29-1.543c-0.481-0.315-1.093-0.097-1.631-0.216
		c-2.039-0.352-3.856-1.517-5.322-2.943c-1.403-1.418-2.572-3.167-2.943-5.157c-0.164-0.989-0.111-2.096,0.501-2.934
		c0.604-0.855,1.69-1.259,2.711-1.206c0.198,0.144,0.268,0.404,0.399,0.604c0.552,1.061,1.197,2.077,1.693,3.166
		c-0.577,0.563-1.145,1.137-1.714,1.709c0.76,1.278,1.838,2.401,3.15,3.112c0.568-0.575,1.133-1.152,1.722-1.707
		c1.273,0.666,2.54,1.345,3.778,2.072c-0.003,0.897-0.26,1.819-0.907,2.47c0.62,1.145,0.441,2.607-0.324,3.638
		c-0.858,1.209-2.321,1.834-3.752,2.027c-2.052,0.243-4.18-0.107-6.031-1.036c-2.284-1.123-4.16-3.072-5.151-5.421
		c-0.991-2.3-1.122-4.943-0.424-7.344C287.684,415.431,289.411,413.186,291.702,411.831z"/>
	<path fill="#96999B" d="M297.235,431.943c-1.682,0-3.344-0.388-4.806-1.122c-2.318-1.141-4.213-3.135-5.197-5.471
		c-0.994-2.307-1.146-4.939-0.429-7.411c0.801-2.59,2.567-4.847,4.847-6.195c1.677-1.009,3.624-1.542,5.63-1.542
		c0.711,0,1.42,0.069,2.108,0.205c2.78,0.542,5.29,2.199,6.884,4.545c2.53,3.625,2.49,8.813-0.097,12.337
		c-0.175,0.192-0.394,0.289-0.638,0.289c-0.365,0-0.734-0.219-0.919-0.545c-0.159-0.28-0.155-0.587,0.011-0.863
		c0.932-1.445,1.455-2.909,1.558-4.354c0.222-2.614-0.752-5.253-2.604-7.062c-1.648-1.652-3.921-2.606-6.235-2.618h-0.087
		c-2.336,0-4.61,0.922-6.241,2.53c-1.729,1.662-2.721,3.965-2.723,6.32c-0.025,2.386,0.963,4.783,2.645,6.414
		c1.655,1.66,3.95,2.611,6.298,2.611c0.374,0,0.75-0.025,1.115-0.075c0.78-0.13,1.835-0.465,2.415-1.317
		c0.236-0.272,0.239-0.611,0.241-0.97c0.002-0.154,0.003-0.312,0.023-0.465c-0.267-0.147-0.577-0.137-0.874-0.13
		c-0.066,0.001-0.132,0.002-0.197,0.002c-0.132,0-0.304-0.005-0.473-0.042c-1.842-0.318-3.701-1.345-5.37-2.969
		c-1.636-1.653-2.635-3.406-2.972-5.21c-0.142-0.856-0.167-2.072,0.52-3.012c0.553-0.783,1.529-1.25,2.611-1.25
		c0.062,0,0.124,0.001,0.186,0.004l0.03,0.002l0.023,0.018c0.153,0.111,0.235,0.274,0.314,0.431
		c0.035,0.068,0.069,0.136,0.109,0.198c0.217,0.417,0.447,0.826,0.671,1.222c0.355,0.632,0.724,1.285,1.03,1.957l0.029,0.064
		l-0.05,0.049c-0.535,0.521-1.071,1.061-1.589,1.583l-0.069,0.069c0.779,1.286,1.816,2.312,3.006,2.973l0.103-0.104
		c0.508-0.514,1.033-1.046,1.569-1.552l0.052-0.049l0.062,0.033c1.142,0.597,2.483,1.311,3.782,2.075l0.05,0.029l-0.001,0.058
		c-0.003,1.004-0.316,1.884-0.884,2.487c0.578,1.131,0.435,2.601-0.366,3.68c-1.06,1.493-2.848,1.936-3.818,2.067
		C298.095,431.918,297.663,431.943,297.235,431.943z M297.28,410.403c-1.97,0-3.881,0.523-5.527,1.514
		c-2.237,1.323-3.972,3.54-4.758,6.081c-0.704,2.425-0.555,5.009,0.421,7.274c0.967,2.293,2.826,4.25,5.103,5.371
		c1.436,0.72,3.065,1.101,4.717,1.101c0.42,0,0.844-0.025,1.259-0.074c0.938-0.126,2.664-0.553,3.682-1.986
		c0.772-1.041,0.899-2.459,0.318-3.532l-0.035-0.065l0.052-0.053c0.552-0.555,0.862-1.385,0.877-2.342
		c-1.256-0.737-2.55-1.427-3.66-2.008c-0.515,0.489-1.021,1.002-1.512,1.499l-0.208,0.21l-0.066-0.036
		c-1.27-0.688-2.372-1.777-3.188-3.148l-0.04-0.067l0.179-0.18c0.503-0.505,1.021-1.028,1.541-1.536
		c-0.298-0.642-0.651-1.27-0.994-1.878c-0.224-0.397-0.455-0.808-0.669-1.219c-0.039-0.06-0.077-0.134-0.115-0.209
		c-0.066-0.133-0.131-0.259-0.23-0.343c-1.049-0.038-2.061,0.41-2.593,1.165c-0.646,0.885-0.621,2.044-0.485,2.86
		c0.329,1.763,1.31,3.481,2.915,5.104c1.639,1.594,3.461,2.602,5.268,2.915c0.155,0.034,0.313,0.038,0.435,0.038
		c0.064,0,0.129-0.001,0.192-0.002c0.356-0.008,0.716-0.019,1.042,0.196l0.055,0.036l-0.011,0.064
		c-0.027,0.158-0.028,0.324-0.03,0.5c-0.003,0.38-0.006,0.772-0.283,1.091c-0.613,0.9-1.722,1.255-2.543,1.393
		c-0.378,0.051-0.763,0.077-1.146,0.077c-2.4,0-4.747-0.973-6.438-2.668c-1.719-1.667-2.73-4.119-2.703-6.557
		c0.002-2.408,1.016-4.764,2.782-6.463c1.667-1.644,3.993-2.587,6.381-2.587h0.089c2.366,0.012,4.689,0.987,6.374,2.675
		c1.895,1.85,2.89,4.549,2.663,7.22c-0.105,1.478-0.639,2.973-1.587,4.444c-0.126,0.209-0.129,0.444-0.007,0.659
		c0.147,0.261,0.454,0.444,0.745,0.444c0.187,0,0.354-0.075,0.482-0.215c2.532-3.449,2.571-8.54,0.087-12.097
		c-1.565-2.304-4.027-3.93-6.758-4.462C298.675,410.471,297.978,410.403,297.28,410.403z"/>
</g>
</svg>
