<?xml version="1.0" encoding="utf-8"?>
<!-- Generator: Adobe Illustrator 17.0.0, SVG Export Plug-In . SVG Version: 6.00 Build 0)  -->
<!DOCTYPE svg PUBLIC "-//W3C//DTD SVG 1.1//EN" "http://www.w3.org/Graphics/SVG/1.1/DTD/svg11.dtd">
<svg version="1.1" id="Layer_1" xmlns="http://www.w3.org/2000/svg" xmlns:xlink="http://www.w3.org/1999/xlink" x="0px" y="0px"
	 width="40.461px" height="20.777px" viewBox="277.41 410.31 40.461 20.777" enable-background="new 277.41 410.31 40.461 20.777"
	 xml:space="preserve">
<g>
	<path fill="#96999B" d="M281.276,410.571c0.22-0.281,0.609-0.254,0.925-0.261c7.418,0.002,14.836,0.004,22.254,0.025
		c0.409-0.022,0.82,0.274,0.862,0.694c0.137,0.746-0.011,1.498-0.005,2.248c0.099,3.513,0.005,7.03,0.054,10.542
		c-0.018,0.404,0.478,0.55,0.797,0.415c0.314-0.162,0.258-0.537,0.276-0.831c0.007-2.787-0.031-5.577,0.013-8.364
		c0.029-0.818,0.984-0.813,1.579-0.77c1.615,0.11,3.423-0.323,4.838,0.685c1.765,1.217,2.399,3.445,2.639,5.471
		c0.963,0.701,2.268,1.428,2.331,2.765c0.027,1.316,0.074,2.643-0.047,3.955c-0.243,0.822-1.199,0.905-1.913,0.773
		c-0.193-0.968-0.35-2.039-1.127-2.738c-1.33-1.48-3.84-1.687-5.41-0.463c-1.029,0.739-1.617,1.958-1.682,3.212
		c-3.297-0.002-6.594-0.002-9.891-0.002c-0.097-1.125-0.539-2.246-1.417-2.989c-0.779-0.737-1.857-0.963-2.877-1.148
		c-1.723,0.038-3.441-0.119-5.157-0.231c-3.459-0.191-6.917-0.382-10.371-0.615c-0.716-0.072-0.714-1.226-0.009-1.303
		c2.125-0.072,4.254-0.007,6.381-0.029c0.002-0.654,0.022-1.305,0.02-1.958c2.81-0.022,5.621,0.025,8.429-0.02
		c0.752-0.025,1.242-0.685,1.444-1.348c-4.752-0.364-9.511-0.654-14.266-0.988c-0.833,0.04-0.871-1.314-0.045-1.348
		c1.48-0.029,2.962,0.02,4.442,0c0-0.649-0.002-1.296,0.002-1.945c3.407,0.007,6.814,0.02,10.221-0.004
		c0.766-0.007,1.278-0.658,1.527-1.314c-4.772-0.456-9.572-0.631-14.351-1.017C281.206,411.676,280.923,410.955,281.276,410.571z
		 M309.087,416.63c-0.002,1.363-0.007,2.724,0.002,4.087c1.35,0,2.697,0,4.047,0c-0.15-1.318-0.395-2.771-1.424-3.712
		C310.984,416.383,309.956,416.678,309.087,416.63z"/>
</g>
<g>
	<path fill="#96999B" d="M292.638,425.082c1.878-0.764,4.054,0.824,4.09,2.796c0.142,1.837-1.714,3.553-3.535,3.149
		c-1.5-0.175-2.751-1.628-2.592-3.151C290.565,426.62,291.499,425.511,292.638,425.082z M292.499,427.637
		c-0.362,0.827,0.469,1.44,1.15,1.682c0.654-0.164,1.388-0.676,1.206-1.451C294.814,426.627,292.775,426.425,292.499,427.637z"/>
</g>
<g>
	<path fill="#96999B" d="M310.793,425.073c1.289-0.481,2.839,0.02,3.56,1.199c1.053,1.509,0.38,3.872-1.357,4.539
		c-1.498,0.728-3.429-0.081-4.061-1.597C308.235,427.628,309.118,425.578,310.793,425.073z M311.249,426.863
		c-0.811,0.337-0.99,1.581-0.265,2.102c0.604,0.526,1.624,0.274,1.929-0.46C313.437,427.541,312.202,426.326,311.249,426.863z"/>
</g>
<path fill="#96999B" d="M284.337,425.29c2.08,0.049,4.159-0.04,6.235,0.079c-0.663,0.703-0.925,1.637-1.062,2.569
	c-1.462,0.061-2.924,0.016-4.386-0.02c-0.398,0.011-0.737-0.346-0.764-0.732C284.276,426.559,284.301,425.922,284.337,425.29z"/>
</svg>
