<?xml version="1.0" encoding="utf-8"?>
<!-- Generator: Adobe Illustrator 17.0.0, SVG Export Plug-In . SVG Version: 6.00 Build 0)  -->
<!DOCTYPE svg PUBLIC "-//W3C//DTD SVG 1.1//EN" "http://www.w3.org/Graphics/SVG/1.1/DTD/svg11.dtd">
<svg version="1.1" id="Layer_1" xmlns="http://www.w3.org/2000/svg" xmlns:xlink="http://www.w3.org/1999/xlink" x="0px" y="0px"
	 width="24.189px" height="24.76px" viewBox="285.264 409.296 24.189 24.76" enable-background="new 285.264 409.296 24.189 24.76"
	 xml:space="preserve">
<path fill="#96999B" d="M297.972,409.83c1.197-0.817,2.952-0.688,3.992,0.33c0.945,0.933,1.884,1.869,2.821,2.81
	c1.001,1.009,1.169,2.708,0.398,3.9c-0.546,0.776-1.304,1.374-1.954,2.06c-2.404-2.412-4.823-4.809-7.229-7.216
	C296.659,411.09,297.246,410.38,297.972,409.83z"/>
<path fill="#96999B" d="M294.754,412.957c0.579,0.574,1.158,1.146,1.729,1.728c-2.053,2.017-4.07,4.07-6.125,6.086
	c-0.4,0.41-1.016,0.41-1.527,0.237c-0.409,1.539-0.82,3.074-1.229,4.613c0.504,0.553,1.045,1.072,1.552,1.622
	c0.676-0.002,1.319-0.352,1.998-0.415c0.907-0.31,1.85-0.485,2.766-0.768c-0.232-0.535-0.138-1.18,0.293-1.581
	c2.012-2.015,4.033-4.022,6.05-6.033c0.574,0.579,1.152,1.152,1.731,1.726c-2.303,2.288-4.601,4.582-6.898,6.879
	c-0.368,0.412-0.953,0.436-1.454,0.565c-2.489,0.654-4.972,1.329-7.468,1.964c-0.441,0.165-0.972-0.255-0.901-0.72
	c0.153-1.175,0.712-2.247,0.885-3.415c0.412-1.593,0.858-3.178,1.265-4.773c0.073-0.271,0.134-0.567,0.357-0.759
	C290.105,417.594,292.431,415.275,294.754,412.957z"/>
<path fill="#96999B" d="M291.379,421.632c2.01-2.01,4.029-4.012,6.038-6.026c0.632,0.635,1.267,1.268,1.903,1.898
	c-2.015,2.012-4.033,4.024-6.053,6.031c-0.39,0.412-1.042,0.553-1.552,0.289C290.875,423.468,290.693,422.224,291.379,421.632z"/>
<path fill="#96999B" d="M304.997,423.819c0.378-0.366,1.076-0.274,1.346,0.179c0.301,0.427,0.024,0.945-0.158,1.358
	c-1.106,2.324-2.506,4.513-4.181,6.469c1.905-0.4,3.791-0.921,5.599-1.648c0.381-0.148,0.771-0.373,1.195-0.281
	c0.56,0.121,0.836,0.861,0.526,1.333c-0.148,0.259-0.436,0.373-0.696,0.482c-2.889,1.156-5.929,1.934-9.013,2.332
	c-0.478,0.089-0.965-0.281-1.02-0.761c-0.092-0.371,0.179-0.698,0.434-0.929c1.304-1.215,2.412-2.62,3.435-4.077
	c-3.638,2.228-7.977,3.207-12.222,2.972c-0.347-0.039-0.758-0.048-1.009-0.332c-0.332-0.381-0.102-1.05,0.378-1.181
	c0.267-0.063,0.545-0.054,0.819-0.068c3.753-0.138,7.541-1.011,10.791-2.947C302.595,425.916,303.815,424.881,304.997,423.819z"/>
</svg>
