<?xml version="1.0" encoding="utf-8"?>
<!-- Generator: Adobe Illustrator 17.0.0, SVG Export Plug-In . SVG Version: 6.00 Build 0)  -->
<!DOCTYPE svg PUBLIC "-//W3C//DTD SVG 1.1//EN" "http://www.w3.org/Graphics/SVG/1.1/DTD/svg11.dtd">
<svg version="1.1" id="Layer_1" xmlns="http://www.w3.org/2000/svg" xmlns:xlink="http://www.w3.org/1999/xlink" x="0px" y="0px"
	 width="30.686px" height="22.534px" viewBox="282.738 409.552 30.686 22.534"
	 enable-background="new 282.738 409.552 30.686 22.534" xml:space="preserve">
<path fill="#96999B" d="M304.332,420.564c0.089,0,0.179-0.012,0.268-0.038l8.149-2.415c0.5-0.148,0.783-0.673,0.636-1.172
	c-0.148-0.498-0.671-0.783-1.171-0.634l-8.15,2.414c-0.499,0.148-0.784,0.672-0.636,1.171
	C303.548,420.301,303.924,420.564,304.332,420.564z"/>
<path fill="#96999B" d="M312.214,419.614l-8.15,2.414c-0.499,0.148-0.784,0.671-0.636,1.172c0.12,0.408,0.497,0.673,0.904,0.673
	c0.089,0,0.179-0.013,0.268-0.04l8.149-2.415c0.5-0.148,0.783-0.671,0.636-1.17C313.236,419.749,312.713,419.466,312.214,419.614z"
	/>
<path fill="#96999B" d="M301.072,413.967h-6.551l5.668-1.675c0.499-0.146,0.783-0.668,0.635-1.169
	c-0.147-0.497-0.669-0.782-1.169-0.634l-7.888,2.341v-2.123c0-0.634-0.515-1.155-1.149-1.155h-6.733
	c-0.634,0-1.145,0.521-1.145,1.155v4.415v1.768h19.482v-1.768C302.221,414.489,301.705,413.967,301.072,413.967z"/>
<path fill="#96999B" d="M294.017,429.164h-3.059c-0.973,0-1.751-0.715-1.846-1.687h-6.374v3.47c0,0.637,0.511,1.139,1.145,1.139
	h17.188c0.633,0,1.149-0.502,1.149-1.139v-3.47h-6.312C295.806,428.449,294.99,429.164,294.017,429.164z"/>
<rect x="282.739" y="418.059" fill="#96999B" width="19.482" height="8.247"/>
<path fill="#96999B" d="M312.214,422.92l-8.888,2.624v1.991l9.422-2.809c0.5-0.147,0.785-0.67,0.637-1.17
	C313.236,423.057,312.714,422.773,312.214,422.92z"/>
</svg>
