<?xml version="1.0" encoding="utf-8"?>
<!-- Generator: Adobe Illustrator 17.0.0, SVG Export Plug-In . SVG Version: 6.00 Build 0)  -->
<!DOCTYPE svg PUBLIC "-//W3C//DTD SVG 1.1//EN" "http://www.w3.org/Graphics/SVG/1.1/DTD/svg11.dtd">
<svg version="1.1" id="Layer_1" xmlns="http://www.w3.org/2000/svg" xmlns:xlink="http://www.w3.org/1999/xlink" x="0px" y="0px"
	 width="18.506px" height="18.506px" viewBox="0 0 18.506 18.506" enable-background="new 0 0 18.506 18.506" xml:space="preserve">
<g>
	<g>
		<g>
			<path fill="#808184" d="M18.506,14.971c0,1.944-1.591,3.535-3.535,3.535H3.535C1.591,18.506,0,16.915,0,14.971V3.535
				C0,1.591,1.591,0,3.535,0h11.436c1.944,0,3.535,1.591,3.535,3.535V14.971z"/>
		</g>
	</g>
</g>
<path fill="#FFFFFF" d="M12.589,7.065l-2.11,0.006V5.649c0,0-0.046-0.78,0.81-0.78c0-0.008,1.293,0,1.293,0V2.589H10.3
	c0,0-2.614-0.151-2.614,2.966v1.522L5.874,7.079v2.259h1.811v6.828h2.794V9.337h1.869L12.589,7.065z"/>
</svg>
