<?xml version="1.0" encoding="utf-8"?>
<!-- Generator: Adobe Illustrator 17.0.0, SVG Export Plug-In . SVG Version: 6.00 Build 0)  -->
<!DOCTYPE svg PUBLIC "-//W3C//DTD SVG 1.1//EN" "http://www.w3.org/Graphics/SVG/1.1/DTD/svg11.dtd">
<svg version="1.1" id="Layer_1" xmlns="http://www.w3.org/2000/svg" xmlns:xlink="http://www.w3.org/1999/xlink" x="0px" y="0px"
	 width="20.849px" height="24.223px" viewBox="287.124 409.444 20.849 24.223"
	 enable-background="new 287.124 409.444 20.849 24.223" xml:space="preserve">
<g>
	<g>
		<path fill="#96999B" d="M297.444,426.714c0-3.017,0-5.959,0-8.998c-0.319,0-0.596,0.013-0.871-0.003
			c-0.49-0.029-0.851-0.319-0.742-0.783c0.074-0.314,0.46-0.769,0.727-0.783c0.758-0.04,1.525,0.147,2.292,0.182
			c0.834,0.038,1.702,0.143,2.501-0.031c1.067-0.232,1.348-0.114,1.349,1.026c0.003,2.824,0.001,5.648,0.001,8.472
			c0,0.281,0,0.563,0,0.912c0.307,0.02,0.554,0.04,0.801,0.051c0.505,0.022,0.857,0.232,0.882,0.776
			c0.026,0.588-0.34,0.852-0.871,0.87c-0.802,0.028-1.606,0.011-2.409,0.011c-1.347,0-2.694-0.003-4.042,0
			c-0.596,0.001-1.221-0.01-1.252-0.804c-0.032-0.803,0.567-0.871,1.183-0.857C297.118,426.758,297.246,426.733,297.444,426.714z"/>
		<path fill="#96999B" d="M299.918,414.907c-1.549,0.01-2.8-1.217-2.785-2.732c0.014-1.467,1.259-2.711,2.733-2.731
			c1.5-0.021,2.791,1.264,2.778,2.765C302.632,413.71,301.431,414.898,299.918,414.907z"/>
	</g>
</g>
<path fill="#96999B" d="M307.171,421.413c-0.649-0.028-2.752-0.002-3.401-0.002v1.778c0.329,0,2.111,0.001,2.439,0.001
	c-0.002,2.89-0.002,5.782,0,8.673c-5.038-0.002-10.277,0.003-15.315-0.002c-0.919,0.02-1.803-0.68-1.953-1.592
	c-0.263-1.164,0.786-2.362,1.968-2.289c1.073-0.002,1.865,0.828,2.478,1.61c0.313,0.434,1.102,0.215,1.091-0.334
	c0.021-2.59,0.012-5.182,0.005-7.771c-0.142-1.051-0.882-1.966-1.786-2.489c-1.203-0.692-2.802-0.636-3.944,0.159
	c-1.026,0.685-1.663,1.912-1.627,3.148c0.003,2.594-0.008,5.187,0.005,7.781c0.028,1.897,1.723,3.527,3.602,3.57
	c5.353,0.012,10.908,0.018,16.259,0.007c0.5,0.048,1.021-0.382,0.978-0.902c0.003-3.488,0-6.973,0-10.461
	C308.016,421.848,307.617,421.423,307.171,421.413z"/>
</svg>
