<?xml version="1.0" encoding="utf-8"?>
<!-- Generator: Adobe Illustrator 17.0.0, SVG Export Plug-In . SVG Version: 6.00 Build 0)  -->
<!DOCTYPE svg PUBLIC "-//W3C//DTD SVG 1.1//EN" "http://www.w3.org/Graphics/SVG/1.1/DTD/svg11.dtd">
<svg version="1.1" id="Layer_1" xmlns="http://www.w3.org/2000/svg" xmlns:xlink="http://www.w3.org/1999/xlink" x="0px" y="0px"
	 width="218.696px" height="64.912px" viewBox="0 0 218.696 64.912" enable-background="new 0 0 218.696 64.912"
	 xml:space="preserve">
<g>
	<g>
		<g>
			<linearGradient id="SVGID_1_" gradientUnits="userSpaceOnUse" x1="47.2522" y1="8.2666" x2="167.4614" y2="8.2666">
				<stop  offset="0.0086" style="stop-color:#A88861"/>
				<stop  offset="0.1258" style="stop-color:#AB8B65;stop-opacity:0.8818"/>
				<stop  offset="0.2868" style="stop-color:#B29471;stop-opacity:0.7194"/>
				<stop  offset="0.4734" style="stop-color:#BFA586;stop-opacity:0.5312"/>
				<stop  offset="0.679" style="stop-color:#D1BFA9;stop-opacity:0.3238"/>
				<stop  offset="0.8977" style="stop-color:#EBE4DB;stop-opacity:0.1032"/>
				<stop  offset="1" style="stop-color:#FFFFFF;stop-opacity:0"/>
			</linearGradient>
			<path fill="url(#SVGID_1_)" d="M165.553,16.533c-0.234,0-0.472-0.044-0.704-0.136c-70.193-27.984-114.22-0.449-114.657-0.168
				c-0.885,0.572-2.065,0.314-2.636-0.573c-0.57-0.887-0.314-2.069,0.571-2.64c0.467-0.301,11.674-7.417,31.927-11.027
				c18.586-3.314,48.636-4.12,86.205,10.858c0.978,0.39,1.456,1.501,1.066,2.481C167.029,16.077,166.312,16.533,165.553,16.533z"/>
		</g>
	</g>
	<g>
		<g>
			<path fill="#414142" d="M24.514,60.287h4.585v0.583h-4.585v3.281h4.943v0.618h-5.535v-8.323h5.401v0.606h-4.809V60.287z"/>
			<path fill="#414142" d="M36.307,56.458h0.649v0.012l-2.661,4.031l2.873,4.257v0.012h-0.716l-2.527-3.805l-2.527,3.805h-0.716
				v-0.012l2.873-4.257l-2.661-4.031v-0.012h0.66l2.37,3.555L36.307,56.458z"/>
			<path fill="#414142" d="M39.165,61.892v2.878h-0.604v-8.323c1.141,0,2.292,0,3.432,0c3.4,0,3.4,5.445,0,5.445H39.165z
				 M39.165,57.041v4.268h2.829c2.606,0,2.606-4.268,0-4.268H39.165z"/>
			<path fill="#414142" d="M52.4,64.769h-0.794L48.9,61.618h-2.135v3.151h-0.604v-8.323c1.151,0,2.291,0,3.443,0
				c1.7,0,2.56,1.296,2.572,2.592c0.012,1.355-0.827,2.545-2.538,2.545L52.4,64.769z M46.765,61.012h2.773
				c1.364,0,1.967-0.821,1.979-1.986c0.012-0.975-0.615-1.985-1.912-1.985h-2.839V61.012z"/>
			<path fill="#414142" d="M54.273,60.287h4.585v0.583h-4.585v3.281h4.943v0.618h-5.535v-8.323h5.401v0.606h-4.809V60.287z"/>
			<path fill="#414142" d="M65.899,58.051c-0.571-0.975-1.487-1.118-2.37-1.13c-0.917,0-2.37,0.357-2.37,1.689
				c0,1.058,1.073,1.308,2.393,1.569c1.509,0.309,3.074,0.595,3.074,2.39c-0.011,1.879-1.789,2.33-3.097,2.33
				c-1.219,0-2.606-0.535-3.21-1.807l0.537-0.285c0.48,1.011,1.711,1.51,2.672,1.51s2.493-0.285,2.493-1.76
				c0.012-1.249-1.286-1.522-2.571-1.783c-1.431-0.298-2.896-0.607-2.896-2.14c-0.034-1.76,1.688-2.307,2.974-2.307
				c1.118,0,2.091,0.19,2.862,1.415L65.899,58.051z"/>
			<path fill="#414142" d="M73.252,58.051c-0.571-0.975-1.487-1.118-2.37-1.13c-0.917,0-2.37,0.357-2.37,1.689
				c0,1.058,1.073,1.308,2.393,1.569c1.509,0.309,3.074,0.595,3.074,2.39c-0.011,1.879-1.789,2.33-3.097,2.33
				c-1.219,0-2.606-0.535-3.21-1.807l0.537-0.285c0.48,1.011,1.711,1.51,2.672,1.51c0.962,0,2.493-0.285,2.493-1.76
				c0.012-1.249-1.286-1.522-2.571-1.783c-1.431-0.298-2.896-0.607-2.896-2.14c-0.034-1.76,1.688-2.307,2.974-2.307
				c1.118,0,2.091,0.19,2.862,1.415L73.252,58.051z"/>
			<path fill="#414142" d="M86.662,60.62c-0.011,2.187-1.319,4.292-3.946,4.292c-2.628,0-3.947-2.116-3.947-4.316
				c0-2.235,1.309-4.281,3.947-4.281C85.354,56.315,86.674,58.372,86.662,60.62z M79.362,60.608c0.011,1.879,1.129,3.71,3.354,3.71
				c2.236,0,3.365-1.831,3.365-3.71c0-1.926-1.118-3.698-3.365-3.698C80.468,56.91,79.35,58.646,79.362,60.608z"/>
			<path fill="#414142" d="M88.636,56.446l5.267,6.885v-6.885h0.592v8.323H94.26l-5.277-6.872v6.872h-0.604v-8.323H88.636z"/>
			<path fill="#414142" d="M97.118,56.446v7.717h4.405v0.606h-5.009v-8.323H97.118z"/>
			<path fill="#414142" d="M102.952,64.769v-8.323h0.592v8.323H102.952z"/>
			<path fill="#414142" d="M105.812,56.446l5.267,6.885v-6.885h0.592v8.323h-0.234l-5.277-6.872v6.872h-0.604v-8.323H105.812z"/>
			<path fill="#414142" d="M114.283,60.287h4.585v0.583h-4.585v3.281h4.943v0.618h-5.535v-8.323h5.401v0.606h-4.809V60.287z"/>
			<path fill="#414142" d="M125.234,61.892v2.878h-0.604v-8.323c1.141,0,2.292,0,3.432,0c3.4,0,3.4,5.445,0,5.445H125.234z
				 M125.234,57.041v4.268h2.829c2.606,0,2.606-4.268,0-4.268H125.234z"/>
			<path fill="#414142" d="M138.469,64.769h-0.794l-2.706-3.151h-2.135v3.151h-0.604v-8.323c1.151,0,2.291,0,3.443,0
				c1.7,0,2.56,1.296,2.572,2.592c0.012,1.355-0.827,2.545-2.538,2.545L138.469,64.769z M132.834,61.012h2.773
				c1.364,0,1.967-0.821,1.979-1.986c0.012-0.975-0.615-1.985-1.912-1.985h-2.839V61.012z"/>
			<path fill="#414142" d="M139.762,64.769v-8.323h0.592v8.323H139.762z"/>
			<path fill="#414142" d="M142.622,56.446l5.267,6.885v-6.885h0.592v8.323h-0.234l-5.277-6.872v6.872h-0.604v-8.323H142.622z"/>
			<path fill="#414142" d="M152.726,57.029h-2.829v-0.57h6.261v0.57h-2.829v7.741h-0.604V57.029z"/>
			<path fill="#414142" d="M157.586,64.769v-8.323h0.592v8.323H157.586z"/>
			<path fill="#414142" d="M160.446,56.446l5.267,6.885v-6.885h0.592v8.323h-0.234l-5.277-6.872v6.872h-0.604v-8.323H160.446z"/>
			<path fill="#414142" d="M174.485,57.98c-0.682-0.713-1.633-1.07-2.515-1.07c-2.292,0-3.466,1.784-3.455,3.71
				c0,1.962,1.174,3.65,3.455,3.65c0.838,0,1.71-0.309,2.381-0.963v-2.33h-2.728v-0.559h3.298v3.115
				c-0.816,0.868-1.789,1.344-2.951,1.344c-2.662,0-4.037-1.974-4.037-4.245c-0.011-2.604,1.655-4.304,4.037-4.304
				c1.028,0,2.068,0.416,2.862,1.249L174.485,57.98z"/>
		</g>
	</g>
	<g>
		<path fill="#808184" d="M4.625,58.003H0V39.867c0-6.193,3.016-10.053,10.415-10.053c7.037,0,10.053,3.86,10.053,10.053
			S17.452,49.88,10.415,49.88c-2.413,0-4.222-0.402-5.75-1.126L4.625,58.003z M10.214,47.507c3.337,0.04,5.63-1.568,5.63-6.956
			v-1.407c0-5.389-2.292-6.997-5.63-6.957c-3.337,0.04-5.63,1.609-5.63,6.957v1.407C4.584,45.899,6.877,47.467,10.214,47.507z"/>
		<path fill="#808184" d="M37.517,29.814v2.091c-0.644-0.121-1.367-0.121-2.011-0.121c-3.338-0.08-6.997,1.609-6.997,6.957V49.88
			h-4.625v-9.53c0-6.514,4.222-10.576,11.822-10.576C36.311,29.774,36.954,29.774,37.517,29.814z"/>
		<path fill="#808184" d="M44.899,49.84h-4.624V29.653h4.624V49.84z"/>
		<path fill="#808184" d="M59.806,32.307c-3.337-0.04-5.63,1.568-5.63,6.957V49.84h-4.625V40.51c0-6.514,3.619-10.576,10.053-10.576
			c7.158,0,9.932,4.062,9.932,10.576v9.329h-4.624V39.264C64.913,33.916,63.144,32.347,59.806,32.307z"/>
		<path fill="#808184" d="M84.611,32.026h-4.664V49.92h-4.464V32.026h-4.705v-2.332h4.705v-9.973h4.464v9.973h4.664V32.026z"/>
	</g>
	<path fill="#A88861" d="M105.312,49.88h-4.665v-0.121l0.04-4.021c-1.81,3.337-3.418,4.142-5.831,4.142
		c-7.037,0-10.053-3.82-10.053-10.013s3.016-10.053,10.053-10.053c7.399,0,10.254,3.86,10.455,10.053c0,0.241,0,0.482,0,9.892V49.88
		z M100.688,39.143c0-5.348-2.292-6.916-5.63-6.957c-3.337-0.04-5.63,1.568-5.63,6.957v1.407c0,5.388,2.292,6.997,5.63,6.956
		c3.338-0.04,5.63-2.935,5.63-8.284V39.143z"/>
	<path fill="#A88861" d="M123.375,29.814v2.091c-0.643-0.121-1.367-0.121-2.011-0.121c-3.337-0.08-6.997,1.609-6.997,6.957V49.88
		h-4.624v-9.53c0-6.514,4.222-10.576,11.822-10.576C122.169,29.774,122.812,29.774,123.375,29.814z"/>
	<path fill="#A88861" d="M142.966,50.093h-4.664v-0.121l0.04-4.021c-1.809,3.337-3.418,4.142-5.831,4.142
		c-7.037,0-10.053-3.82-10.053-10.013s3.016-10.053,10.053-10.053c7.399,0,10.254,3.86,10.455,10.053c0,0.241,0,0.482,0,9.892
		V50.093z M138.341,39.357c0-5.348-2.292-6.916-5.629-6.957c-3.338-0.04-5.63,1.568-5.63,6.957v1.407
		c0,5.388,2.292,6.997,5.63,6.956c3.337-0.04,5.629-2.935,5.629-8.284V39.357z"/>
	<path fill="#A88861" d="M145.821,19.894h4.624l0.08,11.259c1.528-0.724,3.338-1.407,5.75-1.407c7.037,0,10.054,4.101,10.054,10.294
		c0,6.193-3.016,10.053-10.054,10.053c-7.398,0-10.254-3.86-10.455-10.053C145.821,39.799,145.781,29.062,145.821,19.894z
		 M150.446,40.764c0,5.348,2.292,6.916,5.63,6.956c3.337,0.04,5.629-1.568,5.629-6.956v-1.407c0-5.389-2.292-7.278-5.629-7.238
		c-3.338,0.04-5.63,1.89-5.63,7.238V40.764z"/>
	<path fill="#A88861" d="M171.613,19.974c1.649,0,3.016,1.367,3.016,3.016c0,1.649-1.569,3.016-3.016,3.016
		c-1.649,0.04-2.975-1.367-2.975-3.016C168.637,21.342,169.964,19.974,171.613,19.974z M174.026,50.053h-4.625V29.867h4.625V50.053z
		"/>
	<path fill="#A88861" d="M198.074,50.093h-4.664v-0.121l0.04-4.021c-1.809,3.337-3.418,4.142-5.831,4.142
		c-7.037,0-10.053-3.82-10.053-10.013s3.016-10.053,10.053-10.053c7.399,0,10.254,3.86,10.455,10.053c0,0.241,0,0.482,0,9.892
		V50.093z M193.45,39.357c0-5.348-2.292-6.916-5.629-6.957c-3.338-0.04-5.63,1.568-5.63,6.957v1.407c0,5.388,2.292,6.997,5.63,6.956
		c3.337-0.04,5.629-2.935,5.629-8.284V39.357z"/>
	<path fill="#A88861" d="M44.004,18.618c0.149,0.462,0.668,0.835,1.153,0.828l3.277-0.043c0.485-0.006,0.561,0.221,0.167,0.505
		l-2.655,1.92c-0.393,0.284-0.587,0.893-0.431,1.352l1.054,3.103c0.156,0.46-0.037,0.601-0.429,0.315l-2.647-1.932
		c-0.392-0.286-1.031-0.283-1.42,0.008l-2.625,1.961c-0.389,0.29-0.583,0.151-0.432-0.311l1.02-3.114
		c0.151-0.461-0.05-1.068-0.446-1.348l-2.676-1.891c-0.396-0.28-0.324-0.508,0.162-0.507l3.277,0.007
		c0.485,0.001,1-0.377,1.144-0.841l0.971-3.13c0.144-0.463,0.383-0.465,0.532-0.003L44.004,18.618z"/>
	<g>
		<g>
			<path fill="#414142" stroke="#414142" stroke-width="0.2636" stroke-miterlimit="10" d="M201.737,49.544
				c0,0.799-1.213,0.799-1.213,0C200.524,48.745,201.737,48.745,201.737,49.544z"/>
			<path fill="#414142" d="M209.889,42.417c0,2.534,0,5.053,0,7.587h-0.677v-1.613c-0.664,1.183-1.686,1.736-2.792,1.736
				c-1.908,0-3.47-1.598-3.47-3.917c0-2.319,1.562-3.886,3.47-3.886c1.106,0,2.225,0.569,2.792,1.751v-1.659H209.889z
				 M203.627,46.211c0,1.904,1.244,3.179,2.793,3.179c3.801,0,3.801-6.342,0-6.342C204.872,43.047,203.627,44.307,203.627,46.211z"
				/>
			<path fill="#414142" d="M211.827,46.211c0-2.273,1.548-3.916,3.47-3.916s3.635,1.305,3.372,4.27h-6.151
				c0.139,1.782,1.368,2.811,2.779,2.811c0.899,0,1.949-0.399,2.46-1.152l0.484,0.43c-0.664,0.967-1.852,1.459-2.944,1.459
				C213.375,50.112,211.827,48.622,211.827,46.211z M218.061,45.904c-0.014-1.873-1.12-2.918-2.765-2.918
				c-1.41,0-2.626,1.059-2.779,2.918H218.061z"/>
		</g>
	</g>
</g>
</svg>
