<?xml version="1.0" encoding="utf-8"?>
<!-- Generator: Adobe Illustrator 17.0.0, SVG Export Plug-In . SVG Version: 6.00 Build 0)  -->
<!DOCTYPE svg PUBLIC "-//W3C//DTD SVG 1.1//EN" "http://www.w3.org/Graphics/SVG/1.1/DTD/svg11.dtd">
<svg version="1.1" id="Layer_1" xmlns="http://www.w3.org/2000/svg" xmlns:xlink="http://www.w3.org/1999/xlink" x="0px" y="0px"
	 width="25.577px" height="22.329px" viewBox="285.199 409.756 25.577 22.329"
	 enable-background="new 285.199 409.756 25.577 22.329" xml:space="preserve">
<path fill="#96999B" d="M285.241,430.603c-0.17,0.624,0.197,1.27,0.822,1.44c0.103,0.028,0.206,0.041,0.308,0.041
	c0.515,0,0.988-0.344,1.13-0.864l0.981-3.597h5.741l-4.027-15.188L285.241,430.603z"/>
<path fill="#96999B" d="M310.737,430.611l-5.291-19.966c-0.135-0.515-0.6-0.889-1.132-0.889H292.47
	c-0.363,0-0.707,0.185-0.929,0.474c-0.221,0.287-0.297,0.67-0.204,1.021l5.29,19.957c0.139,0.525,0.614,0.874,1.132,0.874
	c0.101,0,0.202-0.011,0.302-0.038c0.626-0.166,0.998-0.804,0.834-1.427l-0.78-2.936h9.42l0.937,3.536
	c0.166,0.625,0.809,0.994,1.434,0.829C310.53,431.88,310.902,431.237,310.737,430.611z M297.492,425.339l-3.498-13.24h9.419
	l3.499,13.24H297.492z"/>
</svg>
