<?xml version="1.0" encoding="utf-8"?>
<!-- Generator: Adobe Illustrator 17.0.0, SVG Export Plug-In . SVG Version: 6.00 Build 0)  -->
<!DOCTYPE svg PUBLIC "-//W3C//DTD SVG 1.1//EN" "http://www.w3.org/Graphics/SVG/1.1/DTD/svg11.dtd">
<svg version="1.1" id="Layer_1" xmlns="http://www.w3.org/2000/svg" xmlns:xlink="http://www.w3.org/1999/xlink" x="0px" y="0px"
	 width="26.769px" height="22.694px" viewBox="284.576 410.392 26.769 22.694"
	 enable-background="new 284.576 410.392 26.769 22.694" xml:space="preserve">
<path fill="#96999B" d="M309.218,423.117c-0.731-1.245-1.715-2.31-2.843-3.077c-0.037-0.026-0.074-0.049-0.111-0.074
	c1.247-0.982,2.051-2.507,2.051-4.215c0-2.959-2.407-5.359-5.366-5.359h-13.007c-0.061,0-0.102,0.002-0.175,0.004
	c-2.877,0.094-5.191,2.468-5.191,5.366c0,2,1.101,3.746,2.726,4.67c-1.625,0.922-2.726,2.669-2.726,4.668
	c0,2.922,2.349,5.31,5.258,5.368c0.047,0,0.071,0.001,0.108,0.001h7.541c-0.001,0.654-0.015,1.118-0.015,1.61
	c0,0.65,0.59,1.007,1.151,1.007h11.535c0.498,0,0.975-0.355,1.119-0.842c0.041-0.2,0.056-0.438,0.064-0.717
	C311.348,431.348,311.538,427.062,309.218,423.117z M286.055,415.764c0-2.145,1.74-3.887,3.887-3.887
	c2.146,0,3.887,1.741,3.887,3.887c0,2.147-1.741,3.888-3.887,3.888C287.795,419.651,286.055,417.911,286.055,415.764z
	 M289.942,428.988c-2.147,0-3.887-1.74-3.887-3.886c0-2.147,1.74-3.888,3.887-3.888c2.146,0,3.887,1.74,3.887,3.888
	C293.829,427.247,292.088,428.988,289.942,428.988z M309.706,431.405h-10.575c0,0,0.203-3.898-1.895-7.466
	c-1.319-2.246-3.231-3.227-4.384-3.447h10.204c1.38,0.063,3.435,1.201,4.755,3.447C309.908,427.507,309.706,431.405,309.706,431.405
	z"/>
<circle fill="#96999B" cx="289.942" cy="425.101" r="1.805"/>
<circle fill="#96999B" cx="289.942" cy="415.764" r="1.805"/>
</svg>
