<?xml version="1.0" encoding="utf-8"?>
<!-- Generator: Adobe Illustrator 16.0.0, SVG Export Plug-In . SVG Version: 6.00 Build 0)  -->
<!DOCTYPE svg PUBLIC "-//W3C//DTD SVG 1.1//EN" "http://www.w3.org/Graphics/SVG/1.1/DTD/svg11.dtd">
<svg version="1.1" id="Layer_1" xmlns="http://www.w3.org/2000/svg" xmlns:xlink="http://www.w3.org/1999/xlink" x="0px" y="0px"
	 width="19.743px" height="19.534px" viewBox="485.21 295.211 19.743 19.534" enable-background="new 485.21 295.211 19.743 19.534"
	 xml:space="preserve">
<g>
	<g>
		<path fill="#00AEEF" d="M497.035,297.139L497.035,297.139L497.035,297.139c0-1.095-0.886-1.928-1.928-1.928
			s-1.928,0.833-1.928,1.928v0.052l0,0c0,0-0.156,2.24,1.928,4.323C497.191,299.431,497.035,297.139,497.035,297.139z"/>
		<path fill="#00AEEF" d="M497.035,312.819L497.035,312.819C497.035,312.87,497.035,312.87,497.035,312.819
			c0,1.094-0.886,1.927-1.928,1.927s-1.928-0.833-1.928-1.927v-0.053l0,0c0,0-0.156-2.239,1.928-4.323
			C497.191,310.578,497.035,312.819,497.035,312.819z"/>
		<path fill="#FFF200" d="M487.189,303.077L487.189,303.077L487.189,303.077c-1.094,0-1.979,0.833-1.979,1.927
			s0.886,1.928,1.928,1.928h0.052l0,0c0,0,2.24,0.156,4.323-1.928C489.481,302.921,487.189,303.077,487.189,303.077z"/>
		<path fill="#FFF200" d="M502.973,303.077L502.973,303.077C502.973,303.077,503.025,303.077,502.973,303.077
			c1.094,0,1.979,0.833,1.979,1.927s-0.886,1.928-1.928,1.928h-0.052l0,0c0,0-2.24,0.156-4.324-1.928
			C500.681,302.921,502.973,303.077,502.973,303.077z"/>
		<path fill="#EC008C" d="M488.022,309.068L488.022,309.068L488.022,309.068c-0.781,0.781-0.781,1.979,0,2.709
			c0.782,0.729,1.979,0.729,2.709,0l0.053-0.052l0,0c0,0,1.719-1.459,1.719-4.429C489.533,307.349,488.022,309.068,488.022,309.068z
			"/>
		<path fill="#EC008C" d="M499.275,298.233L499.275,298.233C499.275,298.233,499.327,298.18,499.275,298.233
			c0.781-0.781,1.979-0.781,2.761,0c0.729,0.729,0.729,1.979,0,2.709l-0.053,0.052l0,0c0,0-1.458,1.719-4.428,1.719
			C497.555,299.691,499.275,298.233,499.275,298.233z"/>
		<path d="M490.836,298.128L490.836,298.128L490.836,298.128c-0.781-0.781-1.979-0.781-2.761,0c-0.729,0.729-0.729,1.979,0,2.709
			l0.052,0.052l0,0c0,0,1.459,1.719,4.428,1.719C492.554,299.639,490.836,298.128,490.836,298.128z"/>
		<path d="M502.088,309.119L502.088,309.119C502.088,309.119,502.139,309.119,502.088,309.119c0.781,0.782,0.781,1.979,0,2.709
			c-0.729,0.729-1.979,0.729-2.709,0l-0.052-0.052l0,0c0,0-1.719-1.459-1.719-4.428
			C500.629,307.401,502.088,309.119,502.088,309.119z"/>
	</g>
</g>
</svg>
