<?xml version="1.0" encoding="utf-8"?>
<!-- Generator: Adobe Illustrator 17.0.0, SVG Export Plug-In . SVG Version: 6.00 Build 0)  -->
<!DOCTYPE svg PUBLIC "-//W3C//DTD SVG 1.1//EN" "http://www.w3.org/Graphics/SVG/1.1/DTD/svg11.dtd">
<svg version="1.1" id="Layer_1" xmlns="http://www.w3.org/2000/svg" xmlns:xlink="http://www.w3.org/1999/xlink" x="0px" y="0px"
	 width="22.226px" height="20.438px" viewBox="286.659 410.647 22.226 20.438"
	 enable-background="new 286.659 410.647 22.226 20.438" xml:space="preserve">
<path fill="#96999B" d="M308.884,424.935c0-0.045-0.002-0.088-0.006-0.131c-0.293,0.445-0.713,0.799-1.217,1.007l-12.718,5.274
	h12.365c0.871,0,1.577-0.713,1.577-1.583L308.884,424.935z"/>
<path fill="#96999B" d="M307.231,424.768c0.806-0.331,1.188-1.256,0.855-2.06l-1.747-4.213c-0.021-0.052-0.046-0.103-0.072-0.152
	c-0.098,0.538-0.355,1.033-0.749,1.426l-9.752,9.744L307.231,424.768z"/>
<path fill="#96999B" d="M296.019,427.673l8.706-8.699c0.616-0.615,0.616-1.615,0.001-2.231l-3.226-3.224
	c-0.022-0.023-0.045-0.043-0.067-0.064c0.1,0.516,0.047,1.049-0.159,1.545L296.019,427.673z"/>
<path fill="#96999B" d="M292.805,410.647h-4.562c-0.872,0.002-1.578,0.706-1.578,1.579l-0.006,17.235
	c-0.001,0.871,0.706,1.624,1.578,1.624h4.56c0.871,0,1.578-0.753,1.578-1.624l0.006-17.234
	C294.382,411.357,293.675,410.647,292.805,410.647z M291.421,429.275c-0.644,0.002-1.167-0.519-1.167-1.165
	c-0.002-0.643,0.519-1.166,1.163-1.167c0.644,0,1.167,0.521,1.168,1.165C292.587,428.752,292.066,429.274,291.421,429.275z"/>
<path fill="#96999B" d="M295.498,426l4.74-11.431c0.334-0.803-0.049-1.727-0.853-2.061l-4.215-1.744
	c-0.04-0.018-0.082-0.033-0.124-0.046c0.299,0.441,0.457,0.962,0.457,1.508L295.498,426z"/>
</svg>
