<?xml version="1.0" encoding="utf-8"?>
<!-- Generator: Adobe Illustrator 16.0.0, SVG Export Plug-In . SVG Version: 6.00 Build 0)  -->
<!DOCTYPE svg PUBLIC "-//W3C//DTD SVG 1.1//EN" "http://www.w3.org/Graphics/SVG/1.1/DTD/svg11.dtd">
<svg version="1.1" id="Layer_1" xmlns="http://www.w3.org/2000/svg" xmlns:xlink="http://www.w3.org/1999/xlink" x="0px" y="0px"
	 width="11.186px" height="11.186px" viewBox="583.751 303.11 11.186 11.186" enable-background="new 583.751 303.11 11.186 11.186"
	 xml:space="preserve">
<circle fill="#FFFFFF" stroke="#97999C" stroke-width="1.1858" stroke-miterlimit="10" cx="589.344" cy="308.703" r="5"/>
<g>
	<path d="M591.323,308.703c0,0.313-0.105,0.521-0.207,0.832c-0.105,0.313-0.207,0.418-0.418,0.627
		c-0.207,0.207-0.416,0.313-0.625,0.418c-0.209,0.104-0.521,0.207-0.832,0.207c-0.313,0-0.523-0.104-0.836-0.207
		c-0.311-0.105-0.414-0.209-0.625-0.418c-0.207-0.209-0.313-0.416-0.418-0.627c-0.104-0.207-0.207-0.52-0.207-0.832
		c0-0.311,0.104-0.521,0.207-0.834c0.105-0.311,0.207-0.521,0.418-0.625c0.207-0.209,0.416-0.313,0.625-0.418
		c0.209-0.104,0.523-0.209,0.836-0.209c0.311,0,0.52,0.105,0.832,0.209c0.311,0.105,0.521,0.207,0.625,0.418
		c0.207,0.207,0.313,0.416,0.418,0.625C591.217,308.08,591.323,308.496,591.323,308.703z"/>
</g>
</svg>
