<?xml version="1.0" encoding="utf-8"?>
<!-- Generator: Adobe Illustrator 17.0.0, SVG Export Plug-In . SVG Version: 6.00 Build 0)  -->
<!DOCTYPE svg PUBLIC "-//W3C//DTD SVG 1.1//EN" "http://www.w3.org/Graphics/SVG/1.1/DTD/svg11.dtd">
<svg version="1.1" id="Layer_1" xmlns="http://www.w3.org/2000/svg" xmlns:xlink="http://www.w3.org/1999/xlink" x="0px" y="0px"
	 width="18.506px" height="18.506px" viewBox="0 0 18.506 18.506" enable-background="new 0 0 18.506 18.506" xml:space="preserve">
<g>
	<g>
		<g>
			<path fill="#808184" d="M18.506,14.971c0,1.944-1.591,3.535-3.535,3.535H3.535C1.591,18.506,0,16.915,0,14.971V3.535
				C0,1.591,1.591,0,3.535,0h11.436c1.944,0,3.535,1.591,3.535,3.535V14.971z"/>
		</g>
	</g>
</g>
<path fill="#FFFFFF" d="M12.833,4.359c0.723,0.118,1.062,0.431,1.338,0.734c0,0,0.42,0.072,1.665-0.642c0,0-0.183,0.916-1.099,1.446
	c0,0,0.769,0,1.465-0.365c0,0-0.439,0.748-1.3,1.353c0,0,0.097,2.058-0.915,3.991c-1.475,2.821-5.401,5.584-10.674,2.674
	c0,0,2.288,0.329,3.845-1.043c0,0-1.483,0.054-2.416-1.869c0,0,0.769,0.147,1.099-0.055c0,0-2.088-0.585-1.996-2.635
	c0,0,0.586,0.439,1.116,0.329c0,0-1.885-1.337-0.751-3.552c0,0,2.069,2.745,5.401,2.802C9.612,7.527,9.154,4.03,12.833,4.359z"/>
</svg>
